<svg width="180" height="197" viewBox="0 0 180 197" fill="none" xmlns="http://www.w3.org/2000/svg">
<path fill-rule="evenodd" clip-rule="evenodd" d="M86.772 0.634425C81.881 2.12943 73.772 6.92542 73.772 8.32342C73.772 9.10442 74.785 10.1854 76.022 10.7254C78.808 11.9414 88.404 17.2954 91.772 19.5134C94.368 21.2224 95.278 21.7484 102.772 25.8794C113.941 32.0374 117.373 34.0374 118.772 35.2044C119.597 35.8934 121.172 36.7474 122.272 37.1034C124.935 37.9634 128.212 40.7784 129.625 43.4194C130.418 44.9014 130.772 55.3184 130.772 77.1954C130.772 108.828 130.772 108.828 133.022 108.129C134.26 107.745 136.397 106.649 137.772 105.693C139.147 104.737 141.172 103.659 142.272 103.296C143.372 102.933 145.308 101.771 146.574 100.713C148.875 98.7894 148.875 98.7894 148.574 66.4914C148.289 36.0034 148.16 34.0444 146.272 31.5334C144.269 28.8684 131.997 20.6934 130 20.6934C129.416 20.6934 128.789 20.3564 128.605 19.9434C127.857 18.2584 96.011 0.890424 92.772 0.399424C90.847 0.108424 88.147 0.214425 86.772 0.634425ZM52.272 19.2654C50.622 20.1234 43.714 24.0584 36.921 28.0094C30.128 31.9604 21.685 36.7684 18.158 38.6934C4.55297 46.1204 0.771973 51.2094 0.771973 62.0944C0.771973 65.6594 1.22097 68.8534 1.76997 69.1924C2.57497 69.6904 10.726 65.4344 23.772 57.7044C28.497 54.9054 51.54 41.8304 55.26 39.8374C59.66 37.4814 59.66 37.4814 65.466 40.4634C70.857 43.2334 75.708 45.9704 87.586 52.9454C90.163 54.4584 93.291 56.1374 94.536 56.6754C95.782 57.2144 98.032 58.4934 99.536 59.5194C104.633 62.9914 114.26 68.4444 116.522 69.1374C118.755 69.8234 118.772 69.7504 118.772 59.4484C118.772 49.1074 118.761 49.0614 115.812 46.8814C114.185 45.6784 112.497 44.6914 112.062 44.6894C111.628 44.6864 109.247 43.3084 106.772 41.6274C104.297 39.9454 101.372 38.1474 100.272 37.6324C99.172 37.1174 96.022 35.3634 93.272 33.7354C90.522 32.1064 87.147 30.2034 85.772 29.5064C84.397 28.8094 80.931 26.7664 78.07 24.9664C75.209 23.1664 72.509 21.6834 72.07 21.6714C71.631 21.6594 70.147 20.7694 68.772 19.6934C65.639 17.2424 56.613 17.0084 52.272 19.2654ZM160.772 71.2024C160.772 103.711 160.772 103.711 157.906 106.71C156.33 108.359 152.843 110.871 150.156 112.292C140.567 117.363 137.265 119.201 136.772 119.741C135.901 120.695 126.102 126.319 114.499 132.522C111.074 134.353 106.472 137.073 104.272 138.568C100.272 141.284 100.272 141.284 99.988 151.989C99.832 157.876 99.984 162.693 100.326 162.693C100.877 162.693 110.913 157.21 116.266 153.984C117.369 153.319 119.847 151.969 121.772 150.984C123.697 149.999 125.497 148.93 125.772 148.608C126.047 148.286 128.747 146.663 131.772 145.001C134.797 143.34 140.048 140.34 143.44 138.337C146.833 136.333 150.095 134.693 150.69 134.693C151.285 134.693 151.772 134.333 151.772 133.892C151.772 133.452 153.684 132.098 156.022 130.885C168.278 124.52 174.214 120.702 176.612 117.64C179.272 114.243 179.272 114.243 179.577 83.8604C179.88 53.5584 179.875 53.4674 177.577 50.0364C175.197 46.4834 164.608 38.6934 162.158 38.6934C161.005 38.6934 160.772 44.1604 160.772 71.2024ZM54.657 53.5274C53.345 54.5364 50.922 56.0384 49.272 56.8664C45.186 58.9154 36.499 63.7884 35.272 64.7204C34.722 65.1384 32.472 66.5044 30.272 67.7564C28.072 69.0094 24.472 71.0694 22.272 72.3344C20.072 73.6004 16.206 75.7454 13.682 77.1004C8.38697 79.9434 3.14197 85.5104 2.03597 89.4614C1.61597 90.9644 1.27197 104.118 1.27197 118.693C1.27197 144.025 1.36797 145.373 3.45597 149.274C5.82397 153.699 9.60797 156.958 17.495 161.366C20.277 162.921 24.964 165.606 27.912 167.332C49.763 180.13 79.05 196.693 79.829 196.693C81.114 196.693 81.032 179.047 79.736 176.626C79.166 175.561 77.254 174.024 75.486 173.211C73.718 172.398 71.597 171.289 70.772 170.745C69.947 170.202 63.504 166.48 56.454 162.475C49.404 158.47 42.204 154.342 40.454 153.303C37.65 151.636 34.002 149.592 26.007 145.207C24.762 144.524 22.849 142.935 21.757 141.676C19.91 139.546 19.774 137.925 19.804 118.29C19.834 97.7194 19.892 97.1314 22.125 94.6934C24.616 91.9744 26.899 90.3344 30.772 88.4844C32.147 87.8284 34.397 86.5454 35.772 85.6354C37.147 84.7244 40.522 82.7144 43.272 81.1684C48.884 78.0134 52.856 75.7434 61.405 70.8044C64.632 68.9414 68.622 66.6834 70.272 65.7884C78.83 61.1454 78.834 61.3794 70.117 56.3004C61.555 51.3114 58.298 50.7274 54.657 53.5274ZM40.272 96.5214C32.272 101.278 32.272 101.278 31.998 117.98C31.698 136.275 30.962 134.897 45.272 142.85C46.922 143.767 49.847 145.388 51.772 146.454C53.697 147.519 58.197 150.088 61.772 152.164C65.347 154.239 69.847 156.825 71.772 157.91C73.697 158.994 75.7 160.289 76.222 160.787C76.745 161.285 78.207 161.693 79.472 161.693C81.708 161.693 81.771 161.435 81.75 152.443C81.726 142.486 80.851 140.349 75.772 137.846C74.397 137.168 72.372 136.063 71.272 135.39C70.172 134.717 66.122 132.414 62.272 130.272C50.185 123.547 50.772 124.734 50.772 107.019C50.772 95.4064 50.469 91.7024 49.522 91.7294C48.835 91.7494 44.672 93.9054 40.272 96.5214ZM175.593 132.955C174.867 133.649 173.147 134.781 171.772 135.471C168.06 137.333 158.953 142.57 153.272 146.108C147.865 149.475 145.445 150.884 139.272 154.258C137.072 155.46 132.416 158.075 128.926 160.068C125.436 162.062 122.173 163.693 121.676 163.693C121.179 163.693 120.772 164.143 120.772 164.693C120.772 165.243 120.257 165.693 119.627 165.693C117.252 165.693 105.07 174.045 102.966 177.116C101.147 179.77 100.772 181.716 100.772 188.505C100.772 193.008 101.136 196.693 101.581 196.693C102.026 196.693 104.838 195.23 107.831 193.443C110.823 191.656 114.397 189.6 115.772 188.876C120.493 186.39 139.555 175.335 143.772 172.638C144.597 172.11 146.397 171.129 147.772 170.458C150.143 169.301 158.017 164.674 162.296 161.923C163.383 161.224 165.719 159.987 167.488 159.174C171.464 157.345 177.573 151.346 178.832 148.034C179.349 146.675 179.772 142.442 179.772 138.628C179.772 131.454 178.696 129.993 175.593 132.955Z" fill="black"/>
</svg>
