<svg width="199" height="64" viewBox="0 0 199 64" fill="none" xmlns="http://www.w3.org/2000/svg">
<path fill-rule="evenodd" clip-rule="evenodd" d="M29.0414 0.130085C27.3898 0.61711 24.6514 2.1795 24.6514 2.63492C24.6514 2.88935 24.9935 3.2415 25.4112 3.41742C26.352 3.81355 29.5925 5.55772 30.7299 6.28028C31.6065 6.83701 31.9138 7.00837 34.4445 8.35412C38.2161 10.3602 39.3751 11.0117 39.8475 11.3919C40.1261 11.6164 40.658 11.8946 41.0294 12.0105C41.9287 12.2907 43.0353 13.2077 43.5125 14.0681C43.7803 14.5509 43.8998 17.9444 43.8998 25.0713C43.8998 35.3763 43.8998 35.3763 44.6596 35.1486C45.0777 35.0235 45.7993 34.6665 46.2637 34.355C46.728 34.0436 47.4118 33.6924 47.7833 33.5742C48.1547 33.4559 48.8085 33.0774 49.236 32.7327C50.013 32.1059 50.013 32.1059 49.9114 21.5842C49.8152 11.6522 49.7716 11.014 49.134 10.196C48.4576 9.32784 44.3135 6.66468 43.6391 6.66468C43.4419 6.66468 43.2302 6.5549 43.168 6.42036C42.9154 5.87144 32.1613 0.213482 31.0676 0.0535294C30.4175 -0.0412694 29.5057 -0.00673765 29.0414 0.130085ZM99.9417 3.16267C99.9335 3.92399 99.8029 5.16615 99.6512 5.92291C99.4993 6.67934 99.4534 7.37388 99.5489 7.46607C99.6445 7.55827 100.156 7.19569 100.687 6.66045C101.217 6.12521 101.801 5.68738 101.986 5.68738C102.17 5.68738 102.32 5.54469 102.32 5.37008C102.32 4.97069 103.852 4.2048 105.215 3.92171C106.913 3.56955 107.048 4.28787 107.048 13.6687C107.048 22.2387 106.887 23.3988 105.656 23.7096C105.307 23.7975 105.022 24.0298 105.022 24.2256C105.022 24.4653 106.46 24.582 109.412 24.582C113.849 24.582 114.626 24.3471 112.873 23.5369C111.945 23.1075 111.945 23.1075 111.855 13.7414C111.765 4.37485 111.765 4.37485 112.533 4.03736C113.566 3.58324 115.206 4.26214 117.234 5.98513C118.097 6.71713 118.893 7.31622 119.003 7.31622C119.314 7.31622 119.205 5.72028 118.753 3.65979C118.344 1.79542 118.344 1.79542 117.385 2.27527C115.981 2.97828 102.585 2.96949 101.184 2.26485C100.652 1.99707 100.158 1.77815 100.087 1.77815C100.015 1.77815 99.9498 2.40135 99.9417 3.16267ZM174.437 2.28863C173.926 2.65284 172.455 2.75546 167.749 2.75546C161.716 2.75546 161.716 2.75546 162.664 3.54121C163.611 4.32696 163.611 4.32696 163.718 12.7442C163.831 21.6702 163.627 23.3968 162.427 23.6995C162.057 23.793 161.754 24.0298 161.754 24.2256C161.754 24.4725 163.985 24.582 169.014 24.582C176.275 24.582 176.275 24.582 176.273 21.8944C176.27 19.2068 176.27 19.2068 174.936 20.7079C173.517 22.3048 171.58 23.1095 169.662 22.8987C168.677 22.7902 168.677 22.7902 168.583 18.3106C168.489 13.8313 168.489 13.8313 169.976 14.5284C171.636 15.3064 172.612 15.2129 174.025 14.1408C175.72 12.8546 175.252 12.5285 171.716 12.5285C168.508 12.5285 168.508 12.5285 168.508 8.47824C168.508 4.74818 168.56 4.41232 169.167 4.22663C170.389 3.85232 172.383 4.67358 174.342 6.35781C176.534 8.24238 176.524 8.25443 175.949 4.41883C175.587 2.00098 175.337 1.64849 174.437 2.28863ZM134.947 2.33749C134.814 2.46585 133.668 2.53035 132.4 2.48051C121.695 2.05864 116.06 14.6004 123.761 21.7074C127.759 25.397 133.568 25.571 136.325 22.0833C136.99 21.2422 137.111 20.8763 136.818 20.5933C136.524 20.3102 136.159 20.4643 135.33 21.221C133.693 22.7173 132.008 23.143 130.315 22.4892C127.924 21.5663 126.618 19.7231 125.751 16.0455C125.12 13.3667 125.304 10.8143 126.346 7.82735C127.262 5.20361 128.6 4.07091 130.793 4.06374C132.749 4.05755 133.453 4.37616 135.33 6.11902C136.765 7.45174 136.765 7.45174 136.762 6.48812C136.76 5.95809 136.663 4.75503 136.546 3.81421C136.383 2.50494 136.199 2.10392 135.761 2.10392C135.446 2.10392 135.08 2.20914 134.947 2.33749ZM192.675 2.72125C192.572 2.88186 192.691 3.08807 192.939 3.17993C193.187 3.27213 193.642 3.85916 193.95 4.48496C194.411 5.42253 194.51 6.73081 194.51 11.9099C194.51 15.5152 194.384 18.065 194.215 17.8874C194.053 17.717 193.115 16.112 192.132 14.3203C185.133 1.56738 186.148 2.75415 182.241 2.76523C179.735 2.77272 178.967 2.86524 179.401 3.10859C179.727 3.292 180.297 4.01455 180.667 4.71463C181.282 5.87697 181.339 6.63048 181.333 13.4114C181.326 20.0398 181.255 20.9842 180.674 22.2201C180.315 22.9818 179.863 23.6047 179.668 23.6047C179.473 23.6047 179.314 23.8246 179.314 24.0933C179.314 24.4934 179.895 24.582 182.522 24.582C184.334 24.582 185.73 24.4468 185.73 24.2709C185.73 24.0998 185.366 23.6089 184.921 23.1795C184.226 22.5091 184.08 21.9687 183.885 19.3371C183.564 15.0119 183.771 8.91249 184.21 9.75949C184.396 10.1178 185.275 11.6815 186.164 13.2341C188.459 17.2444 189.888 19.829 191.326 22.57C192.741 25.2693 192.922 25.3159 195.754 23.7154C197.211 22.8912 197.212 22.8912 197.212 14.6558C197.212 10.1263 197.306 5.96428 197.422 5.40689C197.537 4.8495 197.977 4.0341 198.399 3.59464C198.821 3.15517 199.081 2.71343 198.977 2.61277C198.662 2.30818 192.875 2.40786 192.675 2.72125ZM68.0447 3.08123C68.1595 3.2604 68.4672 3.40699 68.7282 3.40699C69.7538 3.40699 69.902 4.70811 69.9051 13.7287C69.9081 22.7902 69.9081 22.7902 68.8076 23.6773C67.707 24.5644 67.707 24.5644 72.171 24.5732C76.0024 24.5807 76.6072 24.5129 76.4404 24.0933C76.3333 23.8246 76.0304 23.6047 75.767 23.6047C74.9394 23.6047 74.6297 22.0628 74.6337 17.964C74.6378 13.9945 74.6378 13.9945 75.5107 15.4604C76.3428 16.858 78.0316 19.7674 78.8201 21.1614C79.4313 22.2423 81.1569 23.9568 82.1264 24.4468C83.5258 25.154 87.4619 24.9794 87.4619 24.2103C87.4619 24.0474 87.1158 23.7874 86.6924 23.632C85.9714 23.3675 83.8689 20.7591 82.6009 18.5552C82.2916 18.0177 81.7408 17.1382 81.3771 16.6006C81.0137 16.0631 80.4484 15.1102 80.1212 14.4831C79.794 13.856 79.4502 13.2696 79.3574 13.1801C79.2645 13.0905 78.9913 12.6781 78.7502 12.2637C78.349 11.5737 78.4615 11.3131 80.0881 9.16887C83.1429 5.14171 84.079 4.13574 85.2818 3.58486C85.9238 3.29102 86.4489 2.98415 86.4489 2.90303C86.4489 2.82191 84.8155 2.76002 82.8187 2.76523C80.0821 2.77272 79.3408 2.86068 79.8079 3.1226C80.6767 3.60995 80.3441 4.62407 78.2329 7.92182C77.2725 9.42167 76.207 11.1085 75.865 11.6701C74.6503 13.6648 74.578 13.4905 74.6901 8.83202C74.7985 4.3211 74.7985 4.3211 75.8116 3.53991C76.8247 2.75871 76.8247 2.75871 72.3304 2.75709C69.4198 2.75611 67.9096 2.87013 68.0447 3.08123ZM89.6569 3.54023C90.67 4.32143 90.67 4.32143 90.776 12.4158C90.9013 22.0123 90.7811 23.1922 89.6336 23.6131C87.7952 24.2875 88.8769 24.582 93.1922 24.582C96.946 24.582 97.5437 24.5123 97.3772 24.0933C97.2702 23.8246 96.9764 23.6047 96.7241 23.6047C95.7182 23.6047 95.5665 22.2719 95.5665 13.4267C95.5665 4.09893 95.5932 3.91943 97.0861 3.13172C97.6031 2.85872 96.6931 2.77337 93.2027 2.76686C88.6439 2.75871 88.6439 2.75871 89.6569 3.54023ZM139.298 3.08123C139.412 3.2604 139.709 3.40699 139.957 3.40699C140.205 3.40699 140.53 3.6637 140.68 3.97709C141.035 4.72049 141.281 18.5989 140.987 21.2614C140.79 23.0342 140.647 23.3574 139.944 23.6154C138.111 24.2875 139.197 24.582 143.508 24.582C146.912 24.582 147.851 24.4898 147.723 24.1679C147.632 23.9402 147.219 23.6102 146.805 23.4349C146.08 23.1284 146.048 22.9293 145.957 18.2523C145.868 13.6185 145.892 13.4117 146.464 13.8821C146.794 14.1538 147.554 14.5626 148.151 14.7907C149.361 15.2519 150.91 14.9115 152.023 13.9401C152.613 13.4254 152.636 13.585 152.639 18.0975C152.642 22.7902 152.642 22.7902 151.542 23.6773C150.441 24.5644 150.441 24.5644 154.905 24.5732C158.737 24.5807 159.341 24.5129 159.175 24.0933C159.068 23.8246 158.765 23.6047 158.501 23.6047C157.508 23.6047 157.333 21.8791 157.433 13.0892C157.533 4.32175 157.533 4.32175 158.546 3.54023C159.559 2.75871 159.559 2.75871 155 2.76067C150.441 2.76262 150.441 2.76262 151.539 3.59724C152.636 4.43154 152.636 4.43154 152.636 8.47987C152.636 12.5285 152.636 12.5285 149.259 12.5285C145.882 12.5285 145.882 12.5285 145.882 8.51863C145.882 4.37453 146.029 3.85623 147.402 3.13172C147.92 2.8584 147.028 2.77305 143.583 2.76523C140.671 2.75904 139.162 2.87013 139.298 3.08123ZM17.3911 6.19948C16.8339 6.47899 14.5011 7.7609 12.2072 9.04801C9.91326 10.3351 7.06213 11.9014 5.87109 12.5285C1.27681 14.948 0 16.6058 0 20.1518C0 21.3132 0.151623 22.3537 0.337015 22.4641C0.608856 22.6264 3.36138 21.2399 7.76689 18.7217C9.36248 17.8099 17.1439 13.5505 18.4001 12.9012C19.8859 12.1337 19.8859 12.1337 21.8466 13.1051C23.6671 14.0075 25.3052 14.8991 29.3163 17.1714C30.1865 17.6643 31.2428 18.2112 31.6633 18.3865C32.084 18.5621 32.8438 18.9787 33.3517 19.313C35.0729 20.4441 38.3239 22.2205 39.0877 22.4462C39.8418 22.6697 39.8475 22.6459 39.8475 19.2899C39.8475 15.9211 39.8438 15.9061 38.848 15.1959C38.2985 14.804 37.7285 14.4825 37.5816 14.4818C37.4351 14.4809 36.631 14.0319 35.7952 13.4843C34.9595 12.9364 33.9717 12.3507 33.6002 12.1829C33.2288 12.0151 32.1651 11.4437 31.2364 10.9134C30.3078 10.3827 29.1681 9.76274 28.7037 9.53568C28.2394 9.30862 27.069 8.64308 26.1028 8.05669C25.1367 7.47031 24.2249 6.98719 24.0767 6.98328C23.9284 6.97938 23.4273 6.68944 22.963 6.33891C21.905 5.54045 18.857 5.46422 17.3911 6.19948ZM54.0305 23.1189C54.0305 33.7094 54.0305 33.7094 53.0627 34.6863C52.5305 35.2235 51.353 36.0419 50.4456 36.5048C47.2075 38.1568 46.0924 38.7555 45.926 38.9314C45.6318 39.2422 42.3228 41.0743 38.4046 43.0951C37.248 43.6916 35.6939 44.5777 34.951 45.0647C33.6002 45.9495 33.6002 45.9495 33.5043 49.4368C33.4517 51.3546 33.503 52.9239 33.6185 52.9239C33.8046 52.9239 37.1936 51.1377 39.0013 50.0867C39.3737 49.8701 40.2105 49.4303 40.8606 49.1094C41.5107 48.7885 42.1185 48.4403 42.2114 48.3354C42.3042 48.2305 43.216 47.7018 44.2375 47.1604C45.259 46.6193 47.0322 45.6419 48.1777 44.9894C49.3235 44.3366 50.425 43.8023 50.6259 43.8023C50.8269 43.8023 50.9913 43.6851 50.9913 43.5414C50.9913 43.3981 51.637 42.957 52.4265 42.5618C56.5653 40.4883 58.5698 39.2445 59.3796 38.247C60.2778 37.1404 60.2778 37.1404 60.3808 27.2425C60.4831 17.3711 60.4815 17.3414 59.7054 16.2237C58.9017 15.0663 55.3259 12.5285 54.4986 12.5285C54.1092 12.5285 54.0305 14.3095 54.0305 23.1189ZM18.1965 17.361C17.7534 17.6897 16.9352 18.179 16.378 18.4487C14.9982 19.1162 12.0647 20.7037 11.6503 21.0073C11.4646 21.1435 10.7048 21.5885 9.96188 21.9963C9.21896 22.4045 8.00327 23.0756 7.26035 23.4877C6.51743 23.9001 5.21192 24.5989 4.35959 25.0403C2.57152 25.9665 0.800327 27.78 0.426841 29.0672C0.285011 29.5568 0.168845 33.8419 0.168845 38.59C0.168845 46.8424 0.201264 47.2815 0.906362 48.5524C1.70601 49.9939 2.98384 51.0556 5.6472 52.4916C6.58666 52.9981 8.16942 53.8728 9.16493 54.4351C16.5438 58.6043 26.4338 64 26.6968 64C27.1308 64 27.1031 58.2515 26.6654 57.4628C26.4729 57.1159 25.8273 56.6151 25.2302 56.3503C24.6332 56.0854 23.917 55.7242 23.6384 55.547C23.3598 55.3701 21.184 54.1575 18.8033 52.8528C16.4226 51.5481 13.9912 50.2034 13.4003 49.8649C12.4534 49.3218 11.2215 48.656 8.52163 47.2275C8.10121 47.005 7.4552 46.4873 7.08644 46.0772C6.46273 45.3833 6.4168 44.8552 6.42693 38.4587C6.43706 31.7574 6.45665 31.5658 7.21071 30.7716C8.0519 29.8858 8.82285 29.3516 10.1307 28.7489C10.5951 28.5352 11.3549 28.1172 11.8192 27.8208C12.2835 27.524 13.4232 26.8692 14.3519 26.3656C16.247 25.3378 17.5883 24.5983 20.4752 22.9893C21.5649 22.3824 22.9123 21.6468 23.4695 21.3552C26.3595 19.8427 26.3608 19.9189 23.4172 18.2643C20.5259 16.6391 19.426 16.4488 18.1965 17.361ZM144.583 28.5726C144.274 28.8714 141.873 29.0069 135.567 29.0815C127.638 29.1756 125.502 29.4262 127.83 29.9894C128.375 30.1217 128.934 30.6641 129.365 31.4795C130.012 32.7021 130.039 33.2852 129.943 44.0643C129.85 54.5247 129.795 55.4349 129.203 56.277C128.851 56.7774 128.167 57.3947 127.683 57.6485C126.907 58.0557 127.987 58.1117 136.849 58.1231C146.896 58.1362 146.896 58.1362 146.896 54.7156C146.896 52.8343 146.761 51.295 146.597 51.295C146.432 51.295 146.033 51.6856 145.709 52.1629C144.763 53.5549 143.105 54.998 141.762 55.5981C139.888 56.4347 137.416 56.6604 136.596 56.0698C135.972 55.6206 135.912 55.1355 135.809 49.6929C135.747 46.4531 135.787 43.8023 135.896 43.8023C136.006 43.8023 136.725 44.2421 137.494 44.7796C139.018 45.8446 140.497 46.0293 142.058 45.3497C143.042 44.921 144.869 43.2489 144.869 42.7768C144.869 42.624 142.818 42.4993 140.311 42.4993C135.752 42.4993 135.752 42.4993 135.752 37.6013C135.752 33.6409 135.856 32.5496 136.297 31.9004C137.462 30.1845 140.737 31.2052 144.247 34.3775C146.179 36.124 147.27 36.8325 146.731 35.9901C146.567 35.735 145.577 29.3727 145.552 28.4098C145.541 28.0364 145.053 28.1185 144.583 28.5726ZM166.482 28.7095C165.646 28.9189 163.822 29.104 162.429 29.1203C156.675 29.1887 152.881 31.3026 150.762 35.6197C149.713 37.7561 149.723 40.2078 150.785 41.5663C151.546 42.539 153.953 44.3653 155.664 45.2683C161.046 48.107 161.053 48.111 163.357 49.4958C164.766 50.3428 165.325 51.8566 164.799 53.3962C164.328 54.7716 162.514 56.3659 161.072 56.6715C159.517 57.0009 157.329 56.5813 156.305 55.7577C155.062 54.757 153.987 52.5427 153.987 50.9823C153.987 49.2899 153.551 49.3127 152.671 51.0507C152.285 51.8123 151.512 53.0949 150.954 53.9012C150.395 54.7074 149.937 55.5303 149.936 55.73C149.934 56.2933 152.27 57.6765 154.325 58.3284C155.602 58.7336 157.131 58.9086 159.221 58.889C161.799 58.8649 162.535 58.7287 164.066 57.9938C166.074 57.0299 168.768 54.5863 169.476 53.0867C169.73 52.5492 170.072 51.855 170.236 51.5439C170.4 51.2328 170.534 50.2203 170.534 49.2941C170.534 46.6417 168.762 44.9236 162.767 41.763C155.143 37.7437 155.338 37.887 155.338 36.296C155.338 34.7818 157.138 32.6887 159.087 31.9362C160.514 31.3857 163.237 31.4912 163.635 32.1121C163.737 32.2708 164.055 32.4004 164.342 32.4004C164.989 32.4004 166.735 33.7928 167.748 35.1173C168.7 36.3614 168.727 36.0963 168.214 30.6087C168.001 28.3283 168.001 28.3283 166.482 28.7095ZM173.442 30.0386C173.319 31.0687 173.041 32.7506 172.823 33.7758C172.606 34.8013 172.51 35.7184 172.609 35.8142C172.708 35.9096 173.638 35.1828 174.674 34.199C177.872 31.1628 181.479 29.847 182.341 31.4016C182.564 31.803 182.691 36.3331 182.691 43.8714C182.691 56.7986 182.701 56.7282 180.715 57.5866C179.933 57.9247 180.215 57.985 182.961 58.0671C184.689 58.1189 187.424 58.1189 189.04 58.0671C191.627 57.9844 191.871 57.9273 191.083 57.5866C189.093 56.7266 189.107 56.8246 189.107 43.6069C189.107 29.9871 189.006 30.5165 191.533 30.9064C193.085 31.1459 196.56 33.351 198.017 35.0209C198.872 36.0015 198.9 36.0093 198.9 35.2672C198.9 34.2586 198.248 29.0965 198.054 28.5651C197.934 28.2377 197.643 28.255 196.671 28.6466C194.917 29.3538 176.205 29.3603 174.924 28.6541C174.46 28.398 173.986 28.1833 173.873 28.1768C173.759 28.1706 173.565 29.0085 173.442 30.0386ZM78.3443 29.2945C77.88 29.5242 76.8922 29.9839 76.1493 30.3155C74.6142 31.0012 70.2397 35.075 70.2397 35.8187C70.2397 36.0888 70.0878 36.3097 69.902 36.3097C69.7163 36.3097 69.5643 36.5377 69.5643 36.8162C69.5643 37.0947 69.2783 37.9378 68.9288 38.6894C67.5318 41.6943 67.7678 47.9386 69.3894 50.8813C70.6102 53.0965 70.9391 53.5428 72.2659 54.783C74.4686 56.8419 76.3165 57.7495 79.3628 58.2687C82.9582 58.8812 84.6898 59.3913 87.4619 60.6537C92.6073 62.9973 93.7332 63.1445 96.7485 61.8682C98.0992 61.2964 98.0992 61.2964 97.1844 61.0511C96.6816 60.9163 95.162 60.3322 93.8075 59.753C92.4534 59.1737 90.8665 58.4997 90.2813 58.2551C89.6961 58.0104 88.7462 57.8104 88.1708 57.8104C86.8558 57.8104 86.8295 57.3778 88.1086 56.7803C89.3081 56.22 92.1896 53.8878 92.1896 53.4773C92.1896 53.3141 92.6519 52.6176 93.2165 51.9296C95.783 48.8035 96.6924 42.4755 95.1917 38.1841C93.6728 33.8393 90.6785 30.8162 86.5313 29.4398C84.3444 28.714 79.6842 28.6313 78.3443 29.2945ZM116.757 29.0789C115.331 29.1952 115.163 29.5359 116.19 30.2302C116.645 30.5377 117.116 31.5427 117.535 33.0992C118.085 35.1411 118.18 36.6752 118.181 43.4766C118.182 52.2524 117.956 53.694 116.339 55.2541C113.554 57.9407 108.136 56.1578 107.599 52.3782C107.314 50.3754 107.39 32.7829 107.687 31.7515C107.821 31.2873 108.469 30.6432 109.199 30.2481C110.2 29.7066 110.355 29.5122 109.916 29.3499C109.124 29.0567 98.2664 29.0913 98.2755 29.3871C98.2795 29.5213 98.7732 29.8513 99.373 30.12C101.162 30.9221 101.267 31.673 101.288 43.858C101.307 54.827 101.307 54.827 102.831 56.2965C104.949 58.3404 107.225 59.1135 111.121 59.1135C116.096 59.1135 120.12 57.2589 120.881 54.6146C121.08 53.9249 121.228 49.487 121.229 44.2047C121.231 34.1667 121.529 31.9974 123.135 30.3266C123.574 29.8702 123.931 29.3805 123.93 29.2385C123.927 28.9831 119.217 28.8785 116.757 29.0789ZM13.3388 31.3671C10.6373 32.9168 10.6373 32.9168 10.5447 38.3578C10.4434 44.3177 10.1949 43.8688 15.0272 46.4596C15.5844 46.7584 16.5722 47.2864 17.2222 47.6337C17.8723 47.9806 19.3919 48.8175 20.5991 49.4938C21.8064 50.1698 23.326 51.0122 23.9761 51.3657C24.6261 51.7188 25.3025 52.1407 25.4788 52.3029C25.6554 52.4652 26.1491 52.5981 26.5763 52.5981C27.3314 52.5981 27.3526 52.514 27.3455 49.5847C27.3374 46.341 27.042 45.6449 25.3268 44.8295C24.8625 44.6086 24.1787 44.2486 23.8072 44.0294C23.4357 43.8102 22.0681 43.0599 20.768 42.3621C16.6863 40.1713 16.8845 40.558 16.8845 34.787C16.8845 31.0039 16.7822 29.7972 16.4624 29.806C16.2304 29.8125 14.8246 30.5149 13.3388 31.3671ZM83.7693 31.1123C85.9714 32.6252 87.7676 36.666 88.5061 41.7692C88.8887 44.4115 88.8708 45.2197 88.3626 48.2947C87.5237 53.3708 85.8664 56.1949 83.3411 56.851C80.0412 57.7081 77.1229 54.2422 75.6593 47.7269C74.7793 43.8095 74.785 41.2183 75.6819 37.6704C77.3167 31.2042 80.3373 28.7547 83.7693 31.1123ZM59.0355 43.2361C58.7903 43.4622 58.2095 43.831 57.7451 44.0558C56.4916 44.6624 53.4163 46.3684 51.4979 47.521C49.672 48.6178 48.8548 49.0769 46.7702 50.176C46.0273 50.5676 44.455 51.4195 43.2764 52.0687C42.0979 52.7183 40.996 53.2496 40.8282 53.2496C40.6604 53.2496 40.5229 53.3962 40.5229 53.5754C40.5229 53.7546 40.349 53.9012 40.1363 53.9012C39.3342 53.9012 35.2205 56.622 34.51 57.6224C33.8957 58.487 33.7691 59.121 33.7691 61.3326C33.7691 62.7995 33.892 64 34.0423 64C34.1926 64 35.1421 63.5234 36.1529 62.9412C37.1632 62.3591 38.3701 61.6893 38.8345 61.4535C40.4287 60.6436 46.8658 57.0422 48.2898 56.1636C48.5684 55.9916 49.1762 55.672 49.6406 55.4535C50.4412 55.0765 53.1002 53.5692 54.5452 52.673C54.9123 52.4453 55.7011 52.0423 56.2985 51.7775C57.6411 51.1816 59.7041 49.2274 60.1292 48.1484C60.3038 47.7057 60.4467 46.3267 60.4467 45.0842C60.4467 42.7472 60.0833 42.2712 59.0355 43.2361Z" fill="#1A4D2E"/>
</svg>
