<svg width="668" height="747" viewBox="0 0 668 747" fill="none" xmlns="http://www.w3.org/2000/svg">
<g opacity="0.1">
<path d="M531.207 735.4C539.535 735.4 546.285 725.433 546.285 713.14C546.285 700.846 539.535 690.88 531.207 690.88C522.88 690.88 516.129 700.846 516.129 713.14C516.129 725.433 522.88 735.4 531.207 735.4Z" fill="#3F3D56"/>
<path d="M543.117 617.871C545.224 613.735 546.312 609.039 546.269 604.269C546.269 591.981 539.513 582 531.182 582C522.851 582 516.095 591.972 516.095 604.269C516.064 609.041 517.16 613.736 519.272 617.871C517.206 622.027 516.121 626.712 516.121 631.477C516.121 636.242 517.206 640.927 519.272 645.084C517.206 649.238 516.121 653.922 516.121 658.685C516.121 663.449 517.206 668.132 519.272 672.287C517.17 676.429 516.082 681.126 516.121 685.898C516.121 698.186 522.876 708.158 531.207 708.158C539.538 708.158 546.294 698.196 546.294 685.898C546.324 681.133 545.227 676.444 543.117 672.315C545.183 668.161 546.268 663.477 546.268 658.714C546.268 653.95 545.183 649.267 543.117 645.112C545.188 640.952 546.275 636.262 546.275 631.491C546.275 626.721 545.188 622.031 543.117 617.871Z" fill="#3F3D56"/>
<path d="M531.207 599.345C539.535 599.345 546.285 589.378 546.285 577.085C546.285 564.791 539.535 554.825 531.207 554.825C522.88 554.825 516.129 564.791 516.129 577.085C516.129 589.378 522.88 599.345 531.207 599.345Z" fill="#3F3D56"/>
<path d="M531.207 572.141C539.535 572.141 546.285 562.175 546.285 549.881C546.285 537.587 539.535 527.621 531.207 527.621C522.88 527.621 516.129 537.587 516.129 549.881C516.129 562.175 522.88 572.141 531.207 572.141Z" fill="#3F3D56"/>
<path d="M587.656 363.673C589.719 360.715 591.596 357.598 593.272 354.344L553.644 347.009L596.499 347.368C600.61 337.281 602.853 326.353 603.091 315.254C603.328 304.156 601.556 293.119 597.882 282.819L540.385 316.459L593.406 272.497C588.438 262.816 581.756 254.391 573.776 247.749C565.795 241.107 556.687 236.389 547.019 233.89C537.352 231.391 527.331 231.164 517.582 233.223C507.833 235.282 498.564 239.583 490.353 245.858C482.143 252.133 475.166 260.248 469.857 269.696C464.549 279.145 461.022 289.725 459.498 300.778C457.974 311.831 458.484 323.119 460.997 333.94C463.51 344.761 467.972 354.882 474.105 363.673C470.895 368.276 468.133 373.254 465.866 378.522L517.303 408.656L462.463 387.861C458.61 400.698 457.658 414.416 459.69 427.773C461.723 441.13 466.677 453.704 474.105 464.358C465.725 476.374 460.513 490.806 459.063 506.005C457.614 521.204 459.986 536.556 465.909 550.307C471.831 564.057 481.065 575.65 492.555 583.761C504.044 591.872 517.326 596.174 530.88 596.174C544.435 596.174 557.717 591.872 569.206 583.761C580.696 575.65 589.93 564.057 595.852 550.307C601.775 536.556 604.147 521.204 602.698 506.005C601.248 490.806 596.036 476.374 587.656 464.358C597.669 450 603.112 432.263 603.112 413.997C603.112 395.73 597.669 377.994 587.656 363.635V363.673Z" fill="#B99470"/>
<path opacity="0.1" d="M458.649 414.035C458.624 432.306 464.07 450.051 474.104 464.396C465.725 476.412 460.512 490.844 459.063 506.043C457.614 521.242 459.986 536.594 465.908 550.345C471.831 564.095 481.065 575.688 492.554 583.799C504.044 591.91 517.325 596.212 530.88 596.212C544.435 596.212 557.717 591.91 569.206 583.799C580.696 575.688 589.929 564.095 595.852 550.345C601.775 536.594 604.147 521.242 602.697 506.043C601.248 490.844 596.036 476.412 587.656 464.396C597.337 450.567 458.649 404.894 458.649 414.035Z" fill="black"/>
</g>
<g opacity="0.1">
<path d="M256.732 735.4C265.059 735.4 271.81 725.433 271.81 713.14C271.81 700.846 265.059 690.88 256.732 690.88C248.404 690.88 241.654 700.846 241.654 713.14C241.654 725.433 248.404 735.4 256.732 735.4Z" fill="#3F3D56"/>
<path d="M268.667 617.871C270.767 613.732 271.852 609.037 271.81 604.269C271.81 591.981 265.105 582 256.723 582C248.342 582 241.637 591.972 241.637 604.269C241.599 609.04 242.692 613.737 244.805 617.871C242.739 622.027 241.654 626.712 241.654 631.477C241.654 636.242 242.739 640.927 244.805 645.084C242.739 649.238 241.654 653.922 241.654 658.685C241.654 663.449 242.739 668.132 244.805 672.287C242.699 676.427 241.611 681.126 241.653 685.898C241.653 698.186 248.409 708.158 256.74 708.158C265.071 708.158 271.827 698.196 271.827 685.898C271.867 681.127 270.783 676.43 268.684 672.287C270.745 668.131 271.827 663.448 271.827 658.685C271.827 653.923 270.745 649.24 268.684 645.084C270.745 640.926 271.827 636.241 271.827 631.477C271.827 626.713 270.745 622.029 268.684 617.871H268.667Z" fill="#3F3D56"/>
<path d="M256.732 599.345C265.059 599.345 271.81 589.378 271.81 577.085C271.81 564.791 265.059 554.825 256.732 554.825C248.404 554.825 241.654 564.791 241.654 577.085C241.654 589.378 248.404 599.345 256.732 599.345Z" fill="#3F3D56"/>
<path d="M256.732 572.141C265.059 572.141 271.81 562.175 271.81 549.881C271.81 537.587 265.059 527.621 256.732 527.621C248.404 527.621 241.654 537.587 241.654 549.881C241.654 562.175 248.404 572.141 256.732 572.141Z" fill="#3F3D56"/>
<path d="M200.316 363.673C198.254 360.715 196.377 357.598 194.701 354.344L234.32 347.009L191.474 347.368C187.363 337.281 185.12 326.353 184.882 315.254C184.644 304.156 186.417 293.119 190.091 282.819L247.588 316.459L194.558 272.497C199.529 262.823 206.213 254.407 214.193 247.772C222.173 241.136 231.279 236.425 240.943 233.93C250.608 231.435 260.624 231.211 270.369 233.27C280.114 235.33 289.378 239.63 297.586 245.902C305.793 252.174 312.768 260.284 318.076 269.728C323.384 279.172 326.911 289.746 328.439 300.794C329.966 311.841 329.461 323.125 326.954 333.943C324.447 344.761 319.993 354.881 313.868 363.673C317.078 368.274 319.838 373.253 322.099 378.523L270.637 408.656L325.476 387.861C329.329 400.698 330.282 414.416 328.249 427.773C326.216 441.13 321.262 453.704 313.835 464.358C322.214 476.374 327.427 490.806 328.876 506.005C330.325 521.204 327.953 536.556 322.03 550.307C316.108 564.057 306.874 575.65 295.385 583.761C283.895 591.873 270.614 596.174 257.059 596.174C243.504 596.174 230.222 591.873 218.733 583.761C207.243 575.65 198.01 564.057 192.087 550.307C186.164 536.556 183.792 521.204 185.242 506.005C186.691 490.806 191.903 476.374 200.283 464.358C190.27 450 184.827 432.263 184.827 413.997C184.827 395.73 190.27 377.994 200.283 363.635L200.316 363.673Z" fill="#B99470"/>
<path opacity="0.1" d="M329.29 414.035C329.315 432.306 323.869 450.051 313.835 464.396C322.214 476.412 327.427 490.844 328.876 506.043C330.325 521.242 327.953 536.594 322.031 550.345C316.108 564.095 306.874 575.688 295.385 583.799C283.895 591.91 270.614 596.212 257.059 596.212C243.504 596.212 230.223 591.91 218.733 583.799C207.244 575.688 198.01 564.095 192.087 550.345C186.165 536.594 183.792 521.242 185.242 506.043C186.691 490.844 191.904 476.412 200.283 464.396C190.602 450.567 329.29 404.894 329.29 414.035Z" fill="black"/>
</g>
<g opacity="0.6">
<path opacity="0.5" d="M373.333 15.9759C373.065 15.6006 372.679 15.3551 372.255 15.2897C371.832 15.2243 371.402 15.3439 371.054 15.624C370.706 15.9042 370.466 16.3237 370.384 16.7967C370.301 17.2698 370.381 17.7606 370.609 18.1688C370.919 18.6981 371.263 19.2086 371.59 19.7001C375.52 25.6928 377.557 32.9331 379.317 40.1546C379.745 41.9222 380.155 43.8032 379.669 45.5518C380.276 40.8432 379.991 36.0429 378.831 31.4681C377.68 26.9076 376.203 22.46 374.414 18.1688C374.124 17.3965 373.762 16.6614 373.333 15.9759Z" fill="#B99470"/>
<path d="M347.803 28.5758C345.146 28.4813 344.811 33.0183 347.451 33.2546C348.146 33.3208 348.842 33.3397 349.513 33.3586C357.643 33.6044 365.32 36.9315 372.704 40.5045C374.523 41.3835 376.425 42.3949 377.481 44.2854C374.052 40.005 369.828 36.6293 365.111 34.3984C360.384 32.167 355.5 30.3869 350.51 29.0768C349.627 28.7982 348.719 28.6302 347.803 28.5758Z" fill="#B99470"/>
<path opacity="0.2" d="M348.54 39.7292C346.864 39.7954 347.241 42.4892 348.934 42.4987C349.37 42.4987 349.772 42.4987 350.233 42.4987C355.363 42.2624 360.609 43.8598 365.705 45.6179C366.993 45.9374 368.189 46.6167 369.184 47.5934C366.479 45.2383 363.413 43.4633 360.14 42.3569C356.924 41.2628 353.641 40.4351 350.317 39.8804C349.73 39.7672 349.135 39.7165 348.54 39.7292Z" fill="#B99470"/>
<path opacity="0.5" d="M382.838 89.6652C383.315 91.48 385.528 90.4025 385.126 88.5498C385.017 88.0678 384.891 87.6046 384.765 87.1414C383.299 81.593 383.366 75.468 383.609 69.4659C383.568 67.9791 383.856 66.5042 384.447 65.1746C383.089 68.7108 382.317 72.4973 382.167 76.3471C382.039 80.1323 382.153 83.9231 382.511 87.6897C382.565 88.3582 382.674 89.0196 382.838 89.6652Z" fill="#B99470"/>
<path opacity="0.2" d="M351.6 13.4522C350.585 13.2537 350.51 14.9173 351.516 15.163L352.295 15.3332C355.388 15.9287 358.338 17.6301 361.188 19.4071C361.919 19.7819 362.556 20.357 363.04 21.0801C361.691 19.288 360.06 17.7916 358.229 16.6659C356.426 15.57 354.555 14.6223 352.631 13.8303C352.297 13.6712 351.952 13.5446 351.6 13.4522Z" fill="#B99470"/>
<path d="M336.018 57.3766C333.462 58.8606 335.624 62.9439 338.256 61.5923C338.944 61.2331 339.614 60.8361 340.251 60.4675C348.079 55.8831 357.165 54.2007 366.099 52.9057C368.295 52.5843 370.634 52.3102 372.662 53.2838C367.078 51.6496 361.264 51.258 355.547 52.1306C349.896 52.9998 344.311 54.3554 338.843 56.1856C337.868 56.4738 336.922 56.8729 336.018 57.3766Z" fill="#B99470"/>
<path opacity="0.5" d="M343.335 73.2562C341.491 75.1467 344.366 77.4719 346.294 75.6193C346.797 75.1278 347.283 74.6174 347.735 74.1353C353.343 68.1993 360.752 63.9742 368.128 60.0799C369.938 59.1347 377.347 58.1895 379.384 58.1895C374.187 58.7188 363.568 60.543 358.849 62.9155C354.214 65.407 349.734 68.2491 345.439 71.4225C344.689 71.9585 343.984 72.5724 343.335 73.2562Z" fill="#B99470"/>
<path d="M356.452 98.5975C355.916 101.367 359.428 101.433 360.082 98.5975C360.249 97.8791 360.392 97.1512 360.526 96.4518C362.143 87.9448 366.108 79.7498 370.215 71.8194C371.221 69.8722 376.861 64.2576 378.529 63.0667C374.514 66.8475 366.703 75.1371 364.046 80.1468C361.504 85.1572 359.264 90.355 357.341 95.7051C356.968 96.6368 356.67 97.605 356.452 98.5975Z" fill="#B99470"/>
<path d="M382.871 1.30615C381.613 -1.57677 378.034 0.795724 379.174 3.75426C379.468 4.51989 379.803 5.27607 380.121 6.00389C383.977 14.8039 385.31 24.9839 386.299 34.9938C386.542 37.4419 386.751 40.0601 385.863 42.3192C387.374 36.1003 387.807 29.6107 387.137 23.2069C386.466 16.8783 385.374 10.6158 383.868 4.47262C383.63 3.38229 383.296 2.32153 382.871 1.30615Z" fill="#B99470"/>
<path d="M362.89 6.21186C362.952 6.25665 363.025 6.27967 363.099 6.27803C363.167 6.26522 363.231 6.23093 363.283 6.17911C363.335 6.12728 363.373 6.06001 363.392 5.98502C363.711 5.20994 363.527 4.21746 364.013 3.57471C364.501 4.2392 364.894 4.98543 365.178 5.78652L367.022 5.14377C367.107 5.54565 367.12 5.96277 367.059 6.37036C366.999 6.77794 366.866 7.16764 366.67 7.51627C366.982 7.67799 367.266 7.90215 367.508 8.17792C367.629 8.32096 367.714 8.4987 367.752 8.69194C367.79 8.88518 367.781 9.08657 367.726 9.27438C367.302 9.39616 366.864 9.44711 366.427 9.42562C366.499 10.3356 366.454 11.2525 366.292 12.1479C366.281 12.2832 366.224 12.4084 366.133 12.4976C366.059 12.5304 365.979 12.5398 365.901 12.5248C365.822 12.5098 365.749 12.471 365.689 12.4125C365.052 11.9707 364.529 11.3482 364.172 10.6071L363.493 12.4409C363.442 12.6322 363.332 12.7966 363.183 12.904C363.08 12.9452 362.968 12.9461 362.865 12.9067C362.761 12.8673 362.673 12.7897 362.613 12.6866C362.501 12.4729 362.433 12.2341 362.412 11.9872L362.152 10.229C362.15 10.1388 362.12 10.0521 362.068 9.98329C361.992 9.91737 361.896 9.88694 361.8 9.89823C361.146 9.89823 360.501 9.89823 359.856 9.89823C359.738 9.51069 360.082 9.1515 360.417 8.95301C360.752 8.75451 361.138 8.65999 361.305 8.3008C361.649 7.55408 360.769 6.52379 361.146 5.89049C361.523 5.25719 362.345 5.89049 362.89 6.21186Z" fill="#B99470"/>
<path opacity="0.5" d="M398.393 15.9759C398.651 15.5672 399.042 15.2909 399.481 15.2076C399.919 15.1242 400.369 15.2408 400.732 15.5316C401.094 15.8224 401.339 16.2636 401.413 16.7582C401.487 17.2527 401.383 17.7601 401.126 18.1688C400.807 18.6981 400.472 19.2085 400.145 19.7C396.214 25.6927 394.169 32.9331 392.417 40.1546C391.981 41.9221 391.579 43.8031 392.057 45.5518C391.45 40.8432 391.736 36.0429 392.895 31.468C394.042 26.9062 395.52 22.4582 397.312 18.1688C397.602 17.3963 397.964 16.6611 398.393 15.9759Z" fill="#B99470"/>
<path d="M423.923 28.5758C426.572 28.4813 426.915 33.0183 424.267 33.2546C423.579 33.3208 422.875 33.3397 422.213 33.3586C414.083 33.6044 406.397 36.9315 399.013 40.5045C397.203 41.3835 395.3 42.3949 394.244 44.2854C397.674 40.005 401.898 36.6293 406.615 34.3984C411.339 32.1684 416.22 30.3883 421.207 29.0768C422.094 28.7989 423.004 28.6309 423.923 28.5758Z" fill="#B99470"/>
<path opacity="0.5" d="M423.236 39.7292C424.912 39.7954 424.527 42.4893 422.842 42.4987C422.398 42.4987 421.962 42.4987 421.543 42.4987C416.413 42.2624 411.167 43.8599 406.071 45.618C404.782 45.9355 403.586 46.615 402.592 47.5935C405.296 45.2365 408.362 43.4614 411.636 42.357C414.859 41.2747 418.147 40.4597 421.476 39.9183C422.056 39.7935 422.645 39.7302 423.236 39.7292Z" fill="#B99470"/>
<path opacity="0.2" d="M420.135 13.4522C421.149 13.2537 421.224 14.9173 420.219 15.163L419.431 15.3332C416.346 15.9287 413.388 17.6301 410.546 19.4071C409.815 19.7819 409.178 20.357 408.694 21.0801C410.041 19.2883 411.669 17.7919 413.497 16.6659C415.304 15.5716 417.177 14.624 419.104 13.8303C419.437 13.6699 419.782 13.5434 420.135 13.4522Z" fill="#B99470"/>
<path opacity="0.2" d="M393.901 93.1059C393.675 94.2307 392.292 93.673 392.476 92.5293C392.476 92.2268 392.585 91.9338 392.644 91.6502C393.348 88.2096 393.088 84.476 392.736 80.8275C392.708 79.9218 392.48 79.0383 392.074 78.2565C393.021 80.349 393.618 82.621 393.834 84.9581C394.044 87.2626 394.109 89.5811 394.027 91.896C394.022 92.3031 393.98 92.7086 393.901 93.1059Z" fill="#B99470"/>
<path opacity="0.5" d="M419.489 85.6197C420.277 87.1226 418.341 87.0186 417.495 85.5157C417.268 85.1188 417.067 84.7218 416.866 84.3437C414.469 79.7405 410.815 75.1845 407.135 70.7892C406.267 69.6467 405.253 68.656 404.126 67.8496C406.997 70.0594 409.647 72.6138 412.03 75.4681C414.393 78.3037 416.472 81.1394 418.517 84.0507C418.872 84.5484 419.197 85.0726 419.489 85.6197Z" fill="#B99470"/>
<path opacity="0.2" d="M349.387 85.6197C348.599 87.1226 350.535 87.0186 351.39 85.5157C351.608 85.1188 351.818 84.7218 352.01 84.3437C354.407 79.7405 358.062 75.1845 361.741 70.7892C362.613 69.6465 363.629 68.6558 364.759 67.8496C361.885 70.0593 359.232 72.6137 356.846 75.4681C354.491 78.3037 352.404 81.1394 350.359 84.0507C350.004 84.5484 349.679 85.0726 349.387 85.6197Z" fill="#B99470"/>
<path opacity="0.2" d="M375.026 93.1059C375.252 94.2307 376.635 93.673 376.459 92.5293C376.409 92.2268 376.35 91.9338 376.291 91.6502C375.587 88.2096 375.839 84.476 376.199 80.8275C376.22 79.9219 376.445 79.0372 376.853 78.2565C375.905 80.349 375.308 82.621 375.093 84.9581C374.881 87.2625 374.819 89.5814 374.908 91.896C374.914 92.3025 374.954 92.7075 375.026 93.1059Z" fill="#B99470"/>
<path opacity="0.2" d="M412.063 24.7665C413.069 24.568 413.145 26.2221 412.139 26.4773C411.879 26.5435 411.611 26.5908 411.359 26.638C408.267 27.2335 405.316 28.9349 402.467 30.7214C401.737 31.0989 401.1 31.6736 400.614 32.3944C401.964 30.5993 403.594 29.0998 405.425 27.9708C407.228 26.8746 409.1 25.9269 411.024 25.1351C411.359 24.9736 411.707 24.8501 412.063 24.7665Z" fill="#B99470"/>
<path opacity="0.2" d="M402.634 2.56331C403.472 1.94892 404.126 3.45182 403.279 4.11347L402.609 4.59553C399.944 6.48597 397.764 9.27437 395.711 12.1573C395.155 12.8152 394.757 13.6219 394.554 14.5014C395.21 12.267 396.224 10.1877 397.547 8.36696C398.851 6.58097 400.269 4.90356 401.788 3.34783C402.045 3.05437 402.329 2.7915 402.634 2.56331Z" fill="#B99470"/>
<path d="M435.716 57.3765C438.272 58.8605 436.11 62.9438 433.478 61.5922C432.791 61.233 432.12 60.836 431.475 60.4674C423.655 55.883 414.57 54.2006 405.635 52.9056C403.439 52.5842 401.101 52.3101 399.072 53.2837C404.654 51.6508 410.464 51.2591 416.179 52.1305C421.833 52.9987 427.421 54.3543 432.891 56.1855C433.865 56.4769 434.811 56.8758 435.716 57.3765Z" fill="#B99470"/>
<path opacity="0.5" d="M428.399 73.2562C430.243 75.1467 427.368 77.4719 425.44 75.6193C424.937 75.1278 424.451 74.6174 423.99 74.1353C418.383 68.1993 410.982 63.9742 403.598 60.0799C401.796 59.1347 394.336 58.1895 392.35 58.1895C397.547 58.7188 408.157 60.543 412.876 62.9155C417.512 65.4053 421.992 68.2475 426.287 71.4225C427.04 71.958 427.747 72.5719 428.399 73.2562Z" fill="#B99470"/>
<path d="M406.724 101.745C406.951 104.581 403.456 104.118 403.12 101.282C403.036 100.535 402.978 99.7979 402.919 99.089C402.257 90.4497 399.231 81.7253 396.038 73.275C395.258 71.205 390.28 64.872 388.771 63.4164C392.333 67.7171 399.156 77.0654 401.243 82.4153C403.221 87.7438 404.878 93.2164 406.205 98.7959C406.46 99.7584 406.634 100.746 406.724 101.745Z" fill="#B99470"/>
<path d="M408.82 6.21186C408.754 6.25691 408.678 6.27988 408.602 6.27803C408.534 6.26231 408.472 6.22698 408.42 6.17557C408.369 6.12417 408.33 6.05848 408.308 5.98502C407.998 5.20994 408.174 4.21746 407.696 3.57471C407.206 4.23883 406.81 4.98504 406.523 5.78652L404.688 5.14377C404.6 5.54541 404.586 5.96305 404.646 6.37105C404.707 6.77904 404.841 7.16876 405.04 7.51627C404.727 7.67799 404.443 7.90215 404.201 8.17792C404.079 8.31997 403.992 8.49726 403.953 8.69054C403.913 8.88382 403.921 9.08573 403.975 9.27438C404.399 9.39509 404.837 9.44604 405.274 9.42562C405.208 10.3361 405.256 11.2524 405.417 12.1479C405.428 12.2832 405.485 12.4084 405.576 12.4976C405.65 12.5304 405.73 12.5398 405.809 12.5248C405.887 12.5098 405.96 12.471 406.02 12.4125C406.657 11.9707 407.18 11.3482 407.537 10.6071L408.216 12.4409C408.267 12.6297 408.373 12.7932 408.518 12.904C408.622 12.9458 408.735 12.9472 408.84 12.9078C408.945 12.8684 409.035 12.7905 409.096 12.6866C409.208 12.4729 409.277 12.2341 409.297 11.9872L409.557 10.229C409.559 10.1388 409.589 10.0521 409.641 9.98329C409.717 9.91737 409.813 9.88694 409.909 9.89823C410.555 9.89823 411.208 9.89823 411.854 9.89823C411.971 9.51069 411.619 9.1515 411.292 8.95301C410.965 8.75451 410.563 8.65999 410.395 8.3008C410.06 7.55408 410.94 6.52379 410.563 5.89049C410.186 5.25719 409.39 5.89049 408.82 6.21186Z" fill="#B99470"/>
<path opacity="0.2" d="M414.368 91.5935C414.302 91.6369 414.227 91.6627 414.15 91.6691C414.008 91.6691 413.916 91.5084 413.857 91.3666C413.547 90.601 413.723 89.599 413.245 88.9563C412.752 89.6181 412.356 90.3649 412.072 91.1681L410.236 90.5254C410.149 90.9266 410.135 91.3434 410.194 91.7511C410.253 92.1587 410.384 92.5488 410.58 92.8979C410.266 93.0611 409.982 93.2887 409.742 93.569C409.618 93.7104 409.531 93.8877 409.491 94.0812C409.451 94.2747 409.46 94.4769 409.515 94.6654C409.941 94.7784 410.378 94.8261 410.814 94.8072C410.746 95.7172 410.791 96.6336 410.949 97.5294C410.96 97.6648 411.017 97.79 411.108 97.8792C411.242 97.9737 411.418 97.8792 411.56 97.7941C412.195 97.3517 412.715 96.7292 413.069 95.9887L413.756 97.8225C413.801 98.0143 413.909 98.1798 414.058 98.2856C414.161 98.3268 414.273 98.3277 414.376 98.2883C414.48 98.2489 414.568 98.1713 414.628 98.0682C414.743 97.8557 414.815 97.6167 414.838 97.3687L415.089 95.6107C415.099 95.5224 415.128 95.4381 415.173 95.3649C415.252 95.2975 415.351 95.267 415.449 95.2798C416.095 95.2798 416.749 95.2798 417.394 95.2798C417.503 94.8923 417.159 94.5331 416.832 94.3346C416.505 94.1361 416.103 94.0416 415.936 93.6824C415.6 92.9357 416.472 91.9148 416.103 91.2721C415.734 90.6293 414.938 91.2721 414.368 91.5935Z" fill="#B99470"/>
<path d="M429.941 34.3604C429.874 34.4027 429.799 34.4285 429.723 34.436C429.58 34.436 429.488 34.2754 429.429 34.1336C429.111 33.368 429.295 32.366 428.809 31.7233C428.321 32.3878 427.928 33.134 427.644 33.9351L425.8 33.2923C425.715 33.6942 425.702 34.1113 425.763 34.5189C425.823 34.9265 425.956 35.3162 426.152 35.6648C425.837 35.8259 425.553 36.0537 425.314 36.3359C425.19 36.4774 425.104 36.6547 425.064 36.8482C425.024 37.0417 425.032 37.2439 425.088 37.4324C425.513 37.5459 425.95 37.5936 426.387 37.5742C426.318 38.4842 426.363 39.4006 426.521 40.2964C426.532 40.4317 426.589 40.5569 426.68 40.6461C426.754 40.6789 426.835 40.6884 426.913 40.6734C426.991 40.6584 427.064 40.6195 427.125 40.5611C427.762 40.1193 428.285 39.4968 428.642 38.7557L429.329 40.5894C429.374 40.7813 429.482 40.9468 429.631 41.0526C429.733 41.0937 429.846 41.0947 429.949 41.0553C430.052 41.0158 430.141 40.9383 430.201 40.8352C430.317 40.6239 430.386 40.3838 430.402 40.1357L430.661 38.3776C430.664 38.2873 430.693 38.2006 430.745 38.1319C430.822 38.0659 430.918 38.0355 431.014 38.0468C431.667 38.0468 432.313 38.0468 432.966 38.0468C433.075 37.6592 432.732 37.3001 432.396 37.1016C432.061 36.9031 431.676 36.8085 431.508 36.4494C431.164 35.7026 432.044 34.6723 431.676 34.0391C431.307 33.4058 430.511 34.0391 429.941 34.3604Z" fill="#B99470"/>
<path d="M367.659 100.157C367.567 100.22 367.464 100.256 367.357 100.261C367.164 100.261 367.03 100.034 366.946 99.8358C366.51 98.7677 366.762 97.3876 366.108 96.4802C365.427 97.4058 364.879 98.4455 364.482 99.5616L361.917 98.6731C361.797 99.2331 361.778 99.8147 361.862 100.383C361.945 100.951 362.13 101.495 362.403 101.981C361.951 102.206 361.541 102.527 361.196 102.927C361.025 103.123 360.904 103.369 360.848 103.637C360.792 103.906 360.802 104.186 360.878 104.448C361.469 104.616 362.079 104.686 362.688 104.656C362.598 105.921 362.663 107.193 362.881 108.437C362.888 108.532 362.912 108.624 362.951 108.709C362.989 108.793 363.043 108.868 363.107 108.929C363.292 109.061 363.535 108.929 363.728 108.806C364.611 108.186 365.339 107.32 365.84 106.292L366.787 108.853C366.854 109.119 367.007 109.348 367.214 109.496C367.364 109.565 367.531 109.572 367.684 109.514C367.838 109.457 367.969 109.34 368.052 109.184C368.211 108.898 368.309 108.575 368.337 108.239L368.689 105.8C368.688 105.729 368.701 105.659 368.727 105.594C368.753 105.53 368.792 105.473 368.84 105.427C368.888 105.382 368.945 105.35 369.006 105.332C369.067 105.315 369.131 105.313 369.192 105.327C370.098 105.327 370.994 105.327 371.9 105.327C372.059 104.789 371.573 104.278 371.112 104.051C370.651 103.825 370.106 103.654 369.871 103.106C369.402 102.076 370.617 100.639 370.098 99.7507C369.435 98.6826 368.455 99.7129 367.659 100.157Z" fill="#B99470"/>
<path d="M341.743 36.0713C341.651 36.131 341.547 36.1635 341.441 36.1658C341.248 36.1658 341.114 35.9484 341.031 35.7499C340.595 34.6818 340.846 33.2924 340.192 32.3944C339.512 33.32 338.963 34.3596 338.566 35.4758L336.002 34.5779C335.882 35.1379 335.863 35.7194 335.946 36.2878C336.03 36.8561 336.214 37.3997 336.488 37.8861C336.039 38.1186 335.631 38.4386 335.281 38.8313C335.109 39.0295 334.989 39.2774 334.934 39.5476C334.88 39.8179 334.892 40.0999 334.971 40.3626C335.56 40.5261 336.166 40.5961 336.773 40.5705C336.682 41.8348 336.747 43.1071 336.966 44.3514C336.973 44.4448 336.996 44.5356 337.035 44.6184C337.074 44.7012 337.127 44.7743 337.192 44.8335C337.376 44.9753 337.619 44.8335 337.812 44.7201C338.698 44.0995 339.426 43.2298 339.924 42.1963L340.871 44.7673C340.946 45.0295 341.096 45.2559 341.299 45.4101C341.443 45.4635 341.6 45.4619 341.744 45.4056C341.887 45.3493 342.011 45.2413 342.095 45.0982C342.253 44.8118 342.35 44.4885 342.38 44.1529L342.732 41.7048C342.742 41.5795 342.786 41.4608 342.858 41.3645C342.91 41.3161 342.97 41.2802 343.035 41.2591C343.1 41.2379 343.168 41.232 343.235 41.2417C344.14 41.2417 345.037 41.2417 345.942 41.2417C346.101 40.6934 345.624 40.1925 345.154 39.9656C344.685 39.7388 344.148 39.5592 343.914 39.0204C343.444 37.9901 344.66 36.5534 344.148 35.6649C343.52 34.6346 342.539 35.6271 341.743 36.0713Z" fill="#B99470"/>
<path opacity="0.2" d="M420.378 75.7516C420.331 75.7885 420.276 75.8084 420.219 75.8083C420.169 75.7966 420.122 75.7703 420.084 75.7322C420.046 75.6941 420.017 75.6454 420.001 75.5909C419.774 75.0143 419.909 74.2865 419.548 73.8044C419.197 74.2984 418.914 74.8498 418.71 75.4397L417.344 74.9671C417.281 75.2648 417.272 75.5738 417.316 75.8757C417.361 76.1776 417.459 76.4664 417.604 76.7252C417.365 76.8409 417.149 77.0078 416.967 77.2167C416.875 77.3213 416.81 77.4527 416.781 77.5963C416.751 77.7399 416.757 77.8899 416.799 78.0296C417.111 78.1157 417.433 78.1508 417.755 78.1335C417.703 78.8102 417.74 79.4917 417.863 80.1563C417.871 80.2555 417.913 80.3472 417.981 80.4115C418.035 80.4355 418.095 80.442 418.153 80.4303C418.21 80.4186 418.264 80.3892 418.308 80.3454C418.781 80.0183 419.169 79.5551 419.431 79.0031L419.934 80.3737C419.971 80.5135 420.052 80.634 420.16 80.714C420.238 80.7433 420.322 80.7425 420.4 80.7117C420.477 80.6809 420.543 80.6218 420.587 80.5439C420.666 80.3773 420.712 80.1935 420.722 80.0051L420.906 78.7007C420.907 78.6636 420.914 78.6271 420.929 78.5938C420.943 78.5604 420.964 78.531 420.989 78.5076C421.015 78.4842 421.045 78.4674 421.077 78.4583C421.109 78.4492 421.142 78.448 421.174 78.4549C421.652 78.4549 422.13 78.4549 422.607 78.4549C422.691 78.1714 422.44 77.9067 422.197 77.7838C421.954 77.6609 421.652 77.5664 421.535 77.3018C421.283 76.7535 421.928 75.9879 421.652 75.5153C421.375 75.0427 420.805 75.5247 420.378 75.7516Z" fill="#B99470"/>
<path opacity="0.2" d="M385.176 98.6731C385.127 98.7061 385.073 98.7256 385.017 98.7298C384.966 98.7172 384.919 98.6896 384.88 98.6497C384.842 98.6099 384.814 98.5592 384.799 98.503C384.572 97.9358 384.706 97.208 384.346 96.726C383.993 97.2186 383.71 97.7703 383.508 98.3612L382.142 97.8886C382.079 98.1864 382.07 98.4952 382.115 98.7971C382.159 99.0989 382.257 99.3877 382.402 99.6467C382.163 99.7624 381.947 99.9293 381.765 100.138C381.672 100.243 381.608 100.374 381.578 100.518C381.549 100.661 381.555 100.811 381.597 100.951C381.909 101.037 382.231 101.072 382.552 101.055C382.501 101.729 382.537 102.407 382.661 103.068C382.667 103.169 382.706 103.263 382.77 103.333C382.871 103.399 383.005 103.333 383.106 103.267C383.579 102.94 383.967 102.477 384.229 101.925L384.732 103.295C384.769 103.435 384.849 103.555 384.958 103.636C385.036 103.663 385.12 103.662 385.197 103.631C385.274 103.6 385.34 103.542 385.385 103.465C385.467 103.31 385.516 103.135 385.528 102.955L385.721 101.651C385.721 101.613 385.729 101.577 385.743 101.544C385.758 101.51 385.779 101.481 385.804 101.458C385.83 101.434 385.859 101.417 385.891 101.408C385.923 101.399 385.956 101.398 385.989 101.405C386.466 101.405 386.944 101.405 387.422 101.405C387.506 101.121 387.254 100.847 387.011 100.734C386.768 100.62 386.466 100.516 386.349 100.252C386.098 99.7034 386.743 98.9378 386.466 98.4652C386.19 97.9925 385.595 98.4462 385.176 98.6731Z" fill="#B99470"/>
<path opacity="0.5" d="M351.155 18.4524C351.106 18.4839 351.052 18.5033 350.996 18.5091C350.887 18.5091 350.82 18.3862 350.778 18.2823C350.543 17.7151 350.678 16.9779 350.317 16.5052C349.962 16.9965 349.679 17.5485 349.479 18.1405L348.054 17.6206C347.988 17.9175 347.976 18.2266 348.019 18.5289C348.062 18.8312 348.16 19.1204 348.306 19.3787C348.07 19.5002 347.854 19.6665 347.669 19.8702C347.577 19.9754 347.513 20.1068 347.484 20.2502C347.454 20.3935 347.46 20.5433 347.501 20.6831C347.816 20.7685 348.141 20.8066 348.465 20.7965C348.414 21.4696 348.448 22.1474 348.565 22.8099C348.568 22.8592 348.58 22.9074 348.6 22.9513C348.621 22.9952 348.649 23.0339 348.683 23.0651C348.783 23.1407 348.909 23.0651 349.01 23.0083C349.481 22.6789 349.868 22.2162 350.133 21.6661L350.636 23.0273C350.671 23.1686 350.751 23.2901 350.862 23.3675C350.939 23.4013 351.023 23.4038 351.101 23.3744C351.18 23.3451 351.246 23.2858 351.289 23.2068C351.373 23.0483 351.425 22.8707 351.44 22.687L351.625 21.392C351.629 21.3228 351.653 21.2568 351.692 21.203C351.72 21.1789 351.753 21.1616 351.787 21.1518C351.822 21.1421 351.858 21.1402 351.893 21.1463C352.371 21.1463 352.848 21.1463 353.334 21.1463C353.41 20.8532 353.158 20.5886 352.915 20.4657C352.672 20.3428 352.379 20.2578 352.253 19.9836C352.002 19.4354 352.647 18.6792 352.379 18.2066C352.111 17.734 351.532 18.2161 351.155 18.4524Z" fill="#B99470"/>
<path opacity="0.5" d="M369.243 63.6622C369.191 63.6804 369.135 63.6804 369.084 63.6622C368.983 63.6622 368.908 63.5488 368.866 63.4448C368.631 62.8777 368.765 62.1404 368.413 61.6583C368.057 62.1523 367.774 62.7077 367.575 63.303L366.217 62.821C366.152 63.1186 366.142 63.4279 366.187 63.7301C366.231 64.0324 366.33 64.3212 366.477 64.579C366.237 64.6969 366.018 64.8635 365.832 65.0706C365.741 65.1763 365.678 65.3078 365.648 65.4509C365.619 65.594 365.624 65.7435 365.664 65.8835C365.979 65.9684 366.303 66.0065 366.628 65.9969C366.577 66.67 366.611 67.3477 366.728 68.0102C366.736 68.1094 366.778 68.2011 366.846 68.2654C366.946 68.341 367.08 68.2654 367.181 68.2087C367.65 67.8787 368.034 67.4159 368.296 66.8665L368.807 68.2276C368.842 68.369 368.923 68.4904 369.033 68.5679C369.109 68.5958 369.191 68.5953 369.267 68.5663C369.342 68.5374 369.407 68.4815 369.452 68.4072C369.54 68.2505 369.592 68.072 369.603 67.8873L369.796 66.5924C369.798 66.524 369.818 66.458 369.855 66.4033C369.914 66.3576 369.984 66.3344 370.056 66.3372C370.533 66.3372 371.02 66.3372 371.497 66.3372C371.581 66.0441 371.321 65.7795 371.078 65.6566C370.835 65.5337 370.542 65.4487 370.416 65.1745C370.173 64.6263 370.818 63.8607 370.542 63.3881C370.265 62.9155 369.662 63.4259 369.243 63.6622Z" fill="#B99470"/>
<path opacity="0.5" d="M356.084 46.0339C356.036 46.067 355.981 46.0864 355.925 46.0907C355.874 46.0781 355.827 46.0504 355.789 46.0106C355.75 45.9707 355.722 45.92 355.707 45.8638C355.472 45.2967 355.606 44.5594 355.254 44.0868C354.899 44.5775 354.616 45.1296 354.416 45.722L353.058 45.2494C352.994 45.5471 352.984 45.8563 353.029 46.1585C353.073 46.4606 353.172 46.7494 353.318 47.0075C353.078 47.1254 352.859 47.292 352.673 47.499C352.582 47.6048 352.519 47.7362 352.489 47.8794C352.46 48.0225 352.465 48.172 352.505 48.3119C352.82 48.399 353.145 48.434 353.469 48.4159C353.419 49.089 353.452 49.7668 353.57 50.4292C353.572 50.48 353.584 50.5295 353.604 50.575C353.625 50.6205 353.653 50.6609 353.687 50.6939C353.788 50.76 353.922 50.6939 354.022 50.6277C354.493 50.3001 354.878 49.8368 355.137 49.2855L355.648 50.6561C355.686 50.7959 355.766 50.9163 355.875 50.9963C355.951 51.025 356.034 51.0239 356.11 50.993C356.186 50.9622 356.251 50.9034 356.294 50.8262C356.378 50.6682 356.43 50.4903 356.444 50.3063L356.637 49.0114C356.639 48.9459 356.66 48.8829 356.696 48.8318C356.753 48.7817 356.825 48.7581 356.897 48.7656C357.375 48.7656 357.861 48.7656 358.339 48.7656C358.423 48.4821 358.163 48.208 357.92 48.0945C357.677 47.9811 357.383 47.8771 357.258 47.6125C357.006 47.0642 357.66 46.2986 357.383 45.826C357.107 45.3534 356.503 45.7976 356.084 46.0339Z" fill="#B99470"/>
<path opacity="0.5" d="M412.608 50.1835C412.559 50.215 412.505 50.2343 412.449 50.2402C412.397 50.2296 412.349 50.2027 412.311 50.1625C412.272 50.1223 412.245 50.0706 412.231 50.0133C411.996 49.4462 412.13 48.7184 411.77 48.2363C411.417 48.729 411.134 49.2807 410.932 49.8716L409.574 49.3989C409.509 49.696 409.497 50.0049 409.54 50.307C409.584 50.6091 409.681 50.8983 409.826 51.1571C409.588 51.2752 409.372 51.4418 409.189 51.6486C409.096 51.7532 409.032 51.8846 409.002 52.0282C408.973 52.1717 408.979 52.3218 409.021 52.4615C409.336 52.5485 409.661 52.5836 409.985 52.5654C409.934 53.2385 409.968 53.9163 410.085 54.5788C410.088 54.6295 410.1 54.6791 410.12 54.7246C410.14 54.77 410.168 54.8105 410.203 54.8434C410.303 54.9096 410.429 54.8434 410.53 54.7772C411.003 54.4502 411.391 53.987 411.653 53.435L412.156 54.8056C412.193 54.9454 412.273 55.0659 412.382 55.1459C412.46 55.1752 412.544 55.1744 412.622 55.1436C412.699 55.1128 412.765 55.0537 412.809 54.9757C412.894 54.8177 412.946 54.6399 412.96 54.4559L413.145 53.1609C413.145 53.1238 413.153 53.0873 413.168 53.054C413.182 53.0207 413.203 52.9913 413.228 52.9679C413.254 52.9445 413.283 52.9277 413.315 52.9186C413.347 52.9094 413.381 52.9083 413.413 52.9152C413.891 52.9152 414.368 52.9152 414.854 52.9152C414.93 52.6316 414.678 52.3575 414.435 52.2441C414.192 52.1306 413.899 52.0267 413.773 51.762C413.522 51.2138 414.167 50.4481 413.899 49.9755C413.631 49.5029 413.027 49.9472 412.608 50.1835Z" fill="#B99470"/>
<path opacity="0.2" d="M385.176 46.7145C385.129 46.7514 385.074 46.7712 385.017 46.7712C384.967 46.7595 384.92 46.7332 384.882 46.6951C384.844 46.657 384.815 46.6083 384.799 46.5538C384.572 45.9867 384.706 45.2494 384.346 44.7673C383.995 45.2613 383.712 45.8127 383.508 46.4026L382.142 45.9299C382.079 46.2277 382.07 46.5367 382.114 46.8386C382.159 47.1405 382.257 47.4293 382.402 47.6881C382.163 47.8038 381.947 47.9707 381.765 48.1796C381.672 48.2842 381.608 48.4156 381.578 48.5592C381.549 48.7027 381.555 48.8528 381.597 48.9925C381.909 49.0786 382.231 49.1136 382.552 49.0964C382.501 49.7731 382.537 50.4546 382.661 51.1192C382.669 51.2163 382.708 51.3068 382.77 51.3744C382.826 51.3981 382.887 51.4045 382.946 51.3929C383.005 51.3812 383.06 51.352 383.106 51.3082C383.579 50.9812 383.967 50.518 384.229 49.966L384.732 51.3366C384.769 51.4764 384.849 51.5969 384.958 51.6769C385.036 51.7046 385.12 51.703 385.197 51.6723C385.274 51.6416 385.34 51.5835 385.385 51.5068C385.467 51.3514 385.516 51.1766 385.528 50.9963L385.721 49.6919C385.721 49.6548 385.729 49.6183 385.743 49.585C385.758 49.5517 385.779 49.5223 385.804 49.4989C385.83 49.4755 385.859 49.4586 385.891 49.4495C385.923 49.4404 385.956 49.4393 385.989 49.4462C386.466 49.4462 386.944 49.4462 387.422 49.4462C387.506 49.1626 387.254 48.8979 387.011 48.7751C386.768 48.6522 386.466 48.5577 386.349 48.293C386.098 47.7448 386.743 46.9791 386.466 46.5065C386.19 46.0339 385.595 46.4876 385.176 46.7145Z" fill="#B99470"/>
<path opacity="0.3" d="M376.576 50.9396C376.525 50.9713 376.468 50.9906 376.409 50.9963C376.308 50.9963 376.241 50.8734 376.191 50.7694C375.965 50.2023 376.099 49.465 375.738 48.9924C375.385 49.4851 375.103 50.0368 374.9 50.6277L373.534 50.155C373.472 50.4529 373.463 50.7617 373.507 51.0635C373.552 51.3654 373.649 51.6542 373.794 51.9132C373.555 52.0278 373.338 52.1949 373.157 52.4047C373.065 52.5093 373 52.6407 372.971 52.7843C372.941 52.9278 372.947 53.0779 372.989 53.2176C373.302 53.3037 373.623 53.3387 373.945 53.3215C373.897 53.9951 373.934 54.6728 374.054 55.3348C374.056 55.3845 374.067 55.433 374.087 55.4771C374.108 55.5212 374.136 55.5598 374.171 55.5901C374.272 55.6657 374.397 55.5901 374.498 55.5333C374.97 55.2039 375.357 54.7412 375.621 54.1911L376.124 55.5523C376.159 55.6959 376.24 55.8202 376.35 55.902C376.428 55.9313 376.512 55.9305 376.59 55.8997C376.667 55.8689 376.733 55.8098 376.778 55.7318C376.858 55.5713 376.909 55.3947 376.928 55.212L377.113 53.917C377.114 53.8799 377.121 53.8434 377.136 53.8101C377.15 53.7768 377.171 53.7474 377.196 53.724C377.222 53.7006 377.252 53.6837 377.284 53.6746C377.316 53.6655 377.349 53.6644 377.381 53.6713C377.859 53.6713 378.337 53.6713 378.823 53.6713C378.898 53.3877 378.647 53.1136 378.404 52.9907C378.161 52.8678 377.867 52.7828 377.741 52.5181C377.49 51.9604 378.135 51.2042 377.859 50.7316C377.582 50.259 376.996 50.7033 376.576 50.9396Z" fill="#B99470"/>
<path opacity="0.2" d="M368.547 25.3903C368.499 25.4245 368.444 25.4411 368.388 25.4376C368.287 25.4376 368.212 25.3242 368.17 25.2202C367.943 24.653 368.078 23.9158 367.717 23.4337C367.366 23.9277 367.083 24.4791 366.879 25.069L365.513 24.5963C365.45 24.8941 365.441 25.2031 365.485 25.505C365.53 25.8069 365.628 26.0957 365.773 26.3545C365.534 26.4702 365.318 26.6371 365.136 26.846C365.044 26.9506 364.979 27.082 364.949 27.2256C364.92 27.3691 364.926 27.5192 364.968 27.6588C365.281 27.7437 365.602 27.7818 365.923 27.7723C365.872 28.4458 365.908 29.1242 366.032 29.7856C366.04 29.8826 366.079 29.9732 366.141 30.0408C366.242 30.1164 366.376 30.0408 366.477 29.9746C366.95 29.6513 367.337 29.1912 367.6 28.6419L368.103 30.003C368.14 30.1428 368.22 30.2633 368.329 30.3433C368.406 30.3704 368.489 30.3695 368.566 30.3407C368.642 30.3118 368.709 30.2565 368.756 30.1826C368.837 30.0233 368.886 29.8458 368.899 29.6627L369.092 28.3678C369.096 28.2985 369.12 28.2325 369.159 28.1787C369.217 28.1317 369.288 28.1084 369.36 28.1126C369.838 28.1126 370.315 28.1126 370.793 28.1126C370.877 27.8195 370.625 27.5549 370.382 27.432C370.139 27.3091 369.838 27.2146 369.72 26.9499C369.469 26.4017 370.114 25.6361 369.838 25.1635C369.561 24.6909 368.966 25.1824 368.547 25.3903Z" fill="#B99470"/>
<path opacity="0.3" d="M384.354 58.7376C384.321 58.7636 384.283 58.7799 384.243 58.7851C384.203 58.7903 384.162 58.7841 384.125 58.7673C384.088 58.7504 384.055 58.7233 384.029 58.6884C384.003 58.6535 383.985 58.612 383.977 58.5675C383.742 58.0004 383.877 57.2631 383.516 56.781C383.165 57.275 382.882 57.8264 382.678 58.4162L381.32 57.9436C381.256 58.2408 381.245 58.5494 381.288 58.8514C381.331 59.1534 381.428 59.4425 381.572 59.7017C381.335 59.8221 381.12 59.9884 380.935 60.1932C380.843 60.2978 380.778 60.4293 380.749 60.5729C380.719 60.7164 380.725 60.8664 380.767 61.0061C381.082 61.0932 381.407 61.1282 381.731 61.1101C381.68 61.7864 381.714 62.4673 381.831 63.1329C381.839 63.2321 381.881 63.3238 381.949 63.3881C382.003 63.412 382.063 63.4185 382.121 63.4069C382.178 63.3952 382.232 63.3658 382.276 63.3219C382.747 62.9958 383.134 62.5363 383.399 61.9892L383.902 63.3503C383.939 63.4901 384.02 63.6105 384.128 63.6906C384.206 63.7199 384.29 63.7191 384.368 63.6883C384.445 63.6575 384.511 63.5984 384.555 63.5204C384.634 63.3577 384.677 63.1763 384.681 62.9911L384.866 61.6867C384.874 61.6214 384.897 61.5595 384.933 61.5071C384.989 61.4561 385.062 61.4324 385.134 61.4409C385.612 61.4409 386.098 61.4409 386.575 61.4409C386.659 61.1574 386.399 60.8927 386.156 60.7698C385.913 60.647 385.62 60.5524 385.494 60.2878C385.243 59.7395 385.896 58.9739 385.62 58.5013C385.343 58.0287 384.773 58.5013 384.354 58.7376Z" fill="#B99470"/>
</g>
<path d="M588.511 626.198C590.344 622.593 591.29 618.501 591.252 614.345C591.252 603.636 585.385 594.959 578.118 594.959C570.852 594.959 564.985 603.636 564.985 614.345C564.946 618.501 565.892 622.593 567.725 626.198C565.928 629.82 564.985 633.901 564.985 638.051C564.985 642.202 565.928 646.283 567.725 649.904C565.928 653.526 564.985 657.607 564.985 661.757C564.985 665.908 565.928 669.989 567.725 673.61C565.928 677.232 564.985 681.313 564.985 685.463C564.985 689.614 565.928 693.695 567.725 697.317C565.893 700.922 564.947 705.014 564.985 709.17C564.985 719.879 570.852 728.565 578.118 728.565C585.385 728.565 591.252 719.879 591.252 709.17C591.289 705.014 590.343 700.922 588.511 697.317C590.308 693.695 591.252 689.614 591.252 685.463C591.252 681.313 590.308 677.232 588.511 673.61C590.308 669.989 591.252 665.908 591.252 661.757C591.252 657.607 590.308 653.526 588.511 649.904C590.308 646.283 591.252 642.202 591.252 638.051C591.252 633.901 590.308 629.82 588.511 626.198Z" fill="#3F3D56"/>
<path d="M578.118 610.045C585.371 610.045 591.251 601.361 591.251 590.649C591.251 579.937 585.371 571.253 578.118 571.253C570.864 571.253 564.984 579.937 564.984 590.649C564.984 601.361 570.864 610.045 578.118 610.045Z" fill="#3F3D56"/>
<path d="M578.118 586.338C585.371 586.338 591.251 577.655 591.251 566.942C591.251 556.23 585.371 547.547 578.118 547.547C570.864 547.547 564.984 556.23 564.984 566.942C564.984 577.655 570.864 586.338 578.118 586.338Z" fill="#3F3D56"/>
<path d="M528.935 404.724C527.142 402.148 525.509 399.435 524.049 396.605L558.564 390.205L521.233 390.517C517.655 381.732 515.703 372.216 515.497 362.551C515.291 352.885 516.835 343.274 520.034 334.305L570.113 363.607L523.923 325.297C528.237 316.835 534.052 309.468 541.005 303.655C547.958 297.843 555.899 293.71 564.333 291.515C572.766 289.32 581.51 289.111 590.018 290.9C598.527 292.688 606.616 296.437 613.782 301.911C620.948 307.385 627.035 314.468 631.664 322.715C636.293 330.963 639.363 340.198 640.684 349.845C642.004 359.491 641.546 369.341 639.339 378.779C637.131 388.216 633.221 397.039 627.853 404.696C630.648 408.707 633.053 413.045 635.027 417.636L590.229 443.951L638.003 425.869C641.356 437.053 642.185 449.004 640.414 460.64C638.644 472.277 634.329 483.232 627.861 492.516C635.166 502.983 639.711 515.557 640.976 528.8C642.242 542.043 640.177 555.42 635.019 567.402C629.86 579.384 621.815 589.487 611.805 596.555C601.794 603.624 590.222 607.372 578.411 607.372C566.6 607.372 555.028 603.624 545.017 596.555C535.006 589.487 526.962 579.384 521.803 567.402C516.644 555.42 514.58 542.043 515.845 528.8C517.111 515.557 521.656 502.983 528.96 492.516C520.241 480.004 515.501 464.552 515.501 448.639C515.501 432.725 520.241 417.273 528.96 404.762L528.935 404.724Z" fill="#874000"/>
<path opacity="0.1" d="M641.322 448.601C641.344 464.519 636.601 479.979 627.862 492.478C635.166 502.945 639.711 515.519 640.977 528.762C642.242 542.005 640.178 555.383 635.019 567.365C629.86 579.346 621.816 589.449 611.805 596.518C601.794 603.586 590.222 607.335 578.411 607.335C566.6 607.335 555.028 603.586 545.017 596.518C535.007 589.449 526.962 579.346 521.803 567.365C516.645 555.383 514.58 542.005 515.846 528.762C517.112 515.519 521.656 502.945 528.961 492.478C520.487 480.398 641.322 440.633 641.322 448.601Z" fill="black"/>
<path d="M107.609 633.098C109.552 629.281 110.556 624.947 110.518 620.546C110.518 609.203 104.29 600.006 96.6044 600.006C88.9186 600.006 82.6912 609.203 82.6912 620.546C82.6531 624.947 83.6571 629.281 85.5996 633.098C83.6929 636.933 82.6916 641.255 82.6916 645.651C82.6916 650.047 83.6929 654.369 85.5996 658.204C83.6929 662.038 82.6916 666.36 82.6916 670.756C82.6916 675.152 83.6929 679.474 85.5996 683.309C83.6929 687.141 82.6915 691.462 82.6915 695.856C82.6915 700.251 83.6929 704.572 85.5996 708.404C83.6594 712.223 82.6555 716.555 82.6912 720.957C82.6912 732.299 88.9186 741.496 96.6044 741.496C104.29 741.496 110.518 732.299 110.518 720.957C110.553 716.555 109.549 712.223 107.609 708.404C109.516 704.572 110.517 700.251 110.517 695.856C110.517 691.462 109.516 687.141 107.609 683.309C109.516 679.474 110.517 675.152 110.517 670.756C110.517 666.36 109.516 662.038 107.609 658.204C109.516 654.369 110.517 650.047 110.517 645.651C110.517 641.255 109.516 636.933 107.609 633.098Z" fill="#3F3D56"/>
<path d="M96.6043 615.99C104.288 615.99 110.518 606.794 110.518 595.45C110.518 584.107 104.288 574.911 96.6043 574.911C88.9203 574.911 82.6912 584.107 82.6912 595.45C82.6912 606.794 88.9203 615.99 96.6043 615.99Z" fill="#3F3D56"/>
<path d="M96.6043 590.885C104.288 590.885 110.518 581.689 110.518 570.345C110.518 559.002 104.288 549.806 96.6043 549.806C88.9203 549.806 82.6912 559.002 82.6912 570.345C82.6912 581.689 88.9203 590.885 96.6043 590.885Z" fill="#3F3D56"/>
<path d="M148.687 398.58C150.584 395.849 152.315 392.975 153.866 389.979L117.34 383.192L156.875 383.523C160.669 374.217 162.738 364.136 162.957 353.896C163.176 343.657 161.54 333.475 158.149 323.974L105.078 355.005L153.992 314.456C149.401 305.542 143.233 297.789 135.871 291.679C128.51 285.569 120.112 281.232 111.201 278.938C102.29 276.643 93.0555 276.441 84.0721 278.343C75.0886 280.245 66.5482 284.211 58.9818 289.994C51.4153 295.777 44.9847 303.254 40.0898 311.959C35.1948 320.665 31.9402 330.413 30.5282 340.597C29.1162 350.782 29.5771 361.185 31.8821 371.16C34.1872 381.135 38.2872 390.468 43.9272 398.58C40.9642 402.826 38.4181 407.421 36.3336 412.286L83.8144 440.066L33.2157 420.916C29.6663 432.759 28.79 445.413 30.6661 457.735C32.5421 470.056 37.1114 481.656 43.9607 491.486C36.2305 502.572 31.4222 515.887 30.0856 529.909C28.749 543.932 30.938 558.095 36.4023 570.781C41.8667 583.466 50.3858 594.162 60.9859 601.645C71.5859 609.128 83.8392 613.096 96.3447 613.096C108.85 613.096 121.103 609.128 131.703 601.645C142.304 594.162 150.823 583.466 156.287 570.781C161.751 558.095 163.94 543.932 162.604 529.909C161.267 515.887 156.459 502.572 148.729 491.486C157.964 478.238 162.985 461.875 162.985 445.023C162.985 428.172 157.964 411.809 148.729 398.561L148.687 398.58Z" fill="#874000"/>
<g opacity="0.1" filter="url(#filter0_d_2261_642)">
<path d="M29.6703 445.028C29.6474 461.881 34.6677 478.25 43.9187 491.486C36.1885 502.572 31.3802 515.887 30.0436 529.909C28.707 543.932 30.896 558.095 36.3604 570.781C41.8247 583.466 50.3438 594.162 60.9439 601.645C71.544 609.128 83.7971 613.096 96.3027 613.096C108.808 613.096 121.061 609.128 131.661 601.645C142.262 594.162 150.781 583.466 156.245 570.781C161.709 558.095 163.898 543.932 162.562 529.909C161.225 515.887 156.417 502.572 148.687 491.486C157.613 478.697 29.6703 436.587 29.6703 445.028Z" fill="#E5E5E5"/>
<path d="M31.1853 444.512C32.0521 444.371 33.3677 444.39 35.0974 444.574C38.5432 444.938 43.4799 445.934 49.4011 447.412C61.2361 450.368 76.9335 455.235 92.3572 460.766C107.783 466.298 122.915 472.488 133.625 478.087C138.985 480.89 143.206 483.528 145.802 485.844C147.104 487.005 147.96 488.053 148.364 488.966C148.757 489.854 148.713 490.575 148.277 491.2L148.077 491.486L148.276 491.772C155.955 502.784 160.735 516.016 162.064 529.956C163.393 543.897 161.216 557.977 155.786 570.583C150.356 583.19 141.893 593.81 131.373 601.237C120.854 608.662 108.701 612.596 96.3025 612.596C83.9044 612.596 71.7512 608.662 61.2322 601.237C50.7123 593.81 42.2494 583.19 36.8191 570.583C31.3887 557.977 29.213 543.897 30.5417 529.956C31.8706 516.016 36.6501 502.784 44.3289 491.772L44.5281 491.486L44.3289 491.2C35.1393 478.052 30.1479 461.784 30.1707 445.029V445.028C30.1707 444.955 30.1918 444.884 30.322 444.793C30.4752 444.687 30.7491 444.583 31.1853 444.512Z" stroke="black"/>
</g>
<path d="M364.592 644.176C364.366 644.241 364.157 644.366 363.982 644.54C363.807 644.714 363.672 644.933 363.587 645.178H363.427L362.807 645.065C362.807 645.065 359.555 644.762 358.952 644.81C358.753 644.804 358.559 644.743 358.387 644.633C358.214 644.522 358.069 644.366 357.963 644.176L355.541 641.87L355.356 641.691L355.784 641.52C355.784 641.52 349.288 632.427 347.888 632.248C346.489 632.068 344.175 629.951 344.15 629.923V629.781C344.1 629.478 344.066 629.166 344.033 628.836L344.376 629.072C344.376 628.968 344.376 628.864 344.376 628.75C344.43 627.627 344.768 626.545 345.349 625.631C346.028 624.573 347.025 623.741 347.427 622.521C347.585 621.995 347.656 621.441 347.637 620.886C347.649 619.889 347.417 618.908 346.966 618.051C346.734 617.622 346.425 617.253 346.058 616.968C345.691 616.683 345.275 616.488 344.837 616.396C344.611 616.396 344.376 616.396 344.15 616.293C342.792 615.933 342.298 613.882 340.982 613.381C340.351 613.193 339.681 613.271 339.096 613.599C338.501 613.882 337.973 614.298 337.42 614.619C336.807 614.896 336.218 615.234 335.66 615.631L335.492 615.792L335.383 615.905C335.165 616.154 334.977 616.434 334.822 616.737V616.784C334.822 616.784 334.822 616.85 334.78 616.879V616.954V617.049V617.134V617.219V617.313V617.398V617.502C334.783 617.527 334.783 617.553 334.78 617.578C334.78 617.578 334.78 617.644 334.78 617.682C334.775 617.707 334.775 617.733 334.78 617.758C334.775 617.792 334.775 617.827 334.78 617.862V618.041C334.784 618.06 334.784 618.079 334.78 618.098V618.259C334.932 618.634 335.145 618.974 335.408 619.26L335.333 619.346C334.776 619.948 334.333 620.672 334.03 621.472C333.728 622.273 333.572 623.135 333.573 624.005C333.574 624.392 333.604 624.778 333.665 625.159C333.367 624.904 333.047 624.686 332.71 624.506C331.596 623.898 330.376 623.575 329.139 623.561C327.5 623.45 325.874 623.156 324.286 622.682C324.356 622.839 324.409 623.004 324.445 623.174L324.043 622.919C322.861 622.202 321.58 621.716 320.255 621.482C320.255 621.482 319.417 621.614 319.308 619.591C319.267 618.969 319.165 618.355 319.006 617.758C318.408 615.955 317.957 614.094 317.656 612.2L317.388 609.26C317.388 609.26 318.654 601.632 317.891 598.4C318.046 597.935 318.061 597.426 317.934 596.951C317.806 596.476 317.544 596.062 317.187 595.772C314.002 593.125 310.784 603.437 310.784 603.437L309.585 604.742C309.278 604.517 308.933 604.369 308.571 604.307C308.016 605.118 307.642 606.068 307.481 607.077C307.247 608.154 305.621 609.912 304.129 611.396C303.089 612.427 302.084 613.495 301.086 614.563C300.34 615.357 298.689 616.453 295.085 617.134L293.535 617.417C293.656 616.938 293.718 616.442 293.719 615.943C293.714 614.688 293.331 613.473 292.631 612.497C291.932 611.521 290.959 610.843 289.872 610.574C289.889 610.442 289.889 610.309 289.872 610.177C289.81 609.896 289.683 609.638 289.503 609.43C288.819 608.298 287.887 607.386 286.796 606.784C286.329 606.579 285.829 606.489 285.329 606.519H284.969C284.437 606.552 283.917 606.712 283.445 606.989C282.972 607.266 282.557 607.654 282.228 608.126C281.826 608.74 281.583 609.459 281.231 610.111C280.532 611.287 279.596 612.259 278.498 612.946C277.853 613.381 277.166 613.769 276.554 614.27C275.464 615.214 274.633 616.485 274.155 617.938C273.678 619.391 273.574 620.967 273.855 622.484C274.106 623.807 274.626 625.111 274.484 626.454C274.31 627.483 273.928 628.453 273.369 629.289C272.812 630.145 272.392 631.105 272.128 632.125C272.006 632.631 272.014 633.167 272.151 633.668C272.287 634.17 272.547 634.618 272.9 634.961C273.194 635.148 273.475 635.363 273.738 635.603C273.896 635.816 274.028 636.051 274.132 636.303C274.536 637.125 275.084 637.846 275.743 638.422C276.401 638.999 277.156 639.419 277.962 639.658C278.219 639.737 278.484 639.769 278.75 639.753H278.834C279.11 639.819 279.397 639.782 279.654 639.65C279.911 639.517 280.123 639.295 280.258 639.016C280.287 638.877 280.332 638.743 280.393 638.619C280.449 638.529 280.533 638.466 280.627 638.439C280.824 638.484 281.014 638.563 281.189 638.675C282.031 639.162 282.952 639.455 283.896 639.535C284.055 639.55 284.215 639.55 284.374 639.535C284.704 639.572 285.037 639.52 285.346 639.384C285.644 639.214 285.9 638.964 286.092 638.656L286.218 638.467C285.998 639.951 285.585 641.391 284.994 642.74C284.416 643.878 284.102 645.162 284.08 646.473C284.04 647.155 284.168 647.835 284.449 648.439L284.541 648.231C285.047 649.254 285.658 650.205 286.36 651.067C286.448 652.548 286.389 654.034 286.184 655.5C285.702 657.338 285.742 659.301 286.3 661.111C286.858 662.922 287.905 664.49 289.294 665.595L290.325 668.147L286.075 668.487C285.648 668.421 280.082 667.542 280.057 668.799C280.032 670.057 280.895 682.505 283.779 681.664C286.469 680.879 285.581 677.25 285.455 676.768H285.547H285.447L287.592 674.471C287.614 674.333 287.611 674.192 287.584 674.056C287.556 673.919 287.505 673.79 287.433 673.677L292.621 673.941L293.836 676.947C293.836 676.947 295.907 680.501 294.23 683.488C292.554 686.475 290.811 691.154 290.534 693.98C290.196 695.959 289.404 697.803 288.238 699.33C287.265 699.708 283.536 701.353 285.019 703.858C286.695 706.693 292.269 712.176 294.507 711.986C296.745 711.797 295.848 709.964 295.848 709.964L293.979 707.903C293.818 706.018 293.751 704.125 293.778 702.232C293.795 701.934 293.722 701.638 293.569 701.393C293.417 701.149 293.194 700.971 292.94 700.89C293.116 699.462 293.56 696.778 294.515 695.284C295.865 693.196 300.173 684.017 300.173 684.017C300.173 684.017 301.539 682.647 301.237 678.564C301.111 676.919 301.044 675.473 301.003 674.329L305.881 674.575C305.881 674.575 311.111 673.989 307.557 667.665C304.003 661.342 296.451 655.141 296.451 655.141L296.384 651.228L296.929 651.379C296.929 651.379 296.929 651.237 296.845 650.982H296.929C296.308 647.854 295.846 644.689 295.546 641.501L295.856 641.662C299.1 645.897 301.287 642.314 301.287 642.314C301.287 642.314 308.143 631.454 307.473 631.917C307.401 631.951 307.324 631.969 307.247 631.969C307.169 631.969 307.092 631.951 307.02 631.917L307.515 630.14C307.515 630.14 309.543 626.652 306.601 624.686C304.204 623.089 304.263 628.108 304.372 630.008L304.255 629.885C304.255 629.885 301.958 633.779 300.726 635.963C299.494 638.146 298.463 636.709 298.463 636.709L296.904 634.734C297.158 633.94 297.283 633.101 297.273 632.257C297.307 631.669 297.231 631.08 297.049 630.528C296.867 629.975 296.583 629.473 296.217 629.053C295.295 628.084 294.735 626.756 294.649 625.338C294.661 624.813 294.766 624.295 294.96 623.816L303.048 618.986C303.048 618.986 304.724 618.986 307.046 615.035C308.533 612.485 310.171 610.05 311.949 607.748L311.815 607.54L311.949 607.37C311.949 607.37 311.856 607.218 311.689 606.982L312.938 605.356C312.904 606.09 312.904 606.825 312.938 607.559L313.575 610.026L313.943 623.722C313.943 623.722 313.55 625.036 316.072 626.34C318.201 627.446 321.579 629.318 322.56 629.856C322.542 629.911 322.523 629.965 322.501 630.017H322.794C327.714 629.516 327.547 635.055 327.547 635.055C327.547 635.055 327.882 646.332 326.373 650.254C325.426 653.054 324.987 656.04 325.082 659.035C325.082 659.035 325.233 658.213 326.08 659.291L326.021 659.593C325.543 662.315 324.546 668.1 324.345 670.435C324.141 672.573 323.776 674.689 323.255 676.758L322.752 687.156L325.904 687.326V687.694C325.896 687.89 325.843 688.08 325.75 688.245C325.658 688.411 325.529 688.547 325.376 688.64C324.295 689.301 321.755 691.617 321.956 698.744L321.847 699.916C321.671 701.86 321.15 703.744 320.313 705.455C320.241 705.589 320.177 705.728 320.121 705.871C320.128 705.796 320.157 705.726 320.204 705.672C320.204 705.672 318.57 706.051 318.905 711.032C319.241 716.013 319.743 716.892 320.414 716.949C321.084 717.006 324.362 717.894 324.194 716.079C324.026 714.264 323.859 710.162 324.085 709.538C324.311 708.915 325.191 707.241 324.345 706.835C324.59 705.693 324.709 704.522 324.697 703.347C325.502 701.893 326.449 700.545 327.521 699.33C328.695 698.234 329.332 696.381 329.759 693.999C329.759 693.848 333.229 691.258 332.726 689.112C332.642 688.747 332.575 688.432 332.525 688.167C332.525 688.025 332.525 687.902 332.466 687.789H332.533L333.229 683.063V687.675L333.648 687.732V688.11L333.472 692.524C333.44 693.387 333.27 694.235 332.969 695.029C331.63 698.541 331.036 702.357 331.234 706.173L331.192 710.417C331.075 710.417 329.365 710.899 329.692 715.711C330.027 720.692 330.53 721.562 331.201 721.628C331.871 721.694 335.148 722.573 334.981 720.758C334.813 718.943 334.646 714.841 334.864 714.217C335.081 713.593 335.475 711.949 334.629 711.542C334.633 710.986 334.754 710.439 334.981 709.945C335.35 709.236 336.582 705.871 337.495 703.281C338.442 700.662 338.97 697.875 339.054 695.048V694.954C339.081 694.001 339.262 693.062 339.591 692.184C339.963 691.196 340.263 690.175 340.487 689.131C340.487 689.008 340.487 688.885 340.546 688.772L341.342 688.885L344.091 675.501C344.091 675.501 344.837 668.242 344.477 664.962C344.477 664.83 344.477 664.697 344.427 664.584H344.594C344.594 664.584 345.156 662.967 344.988 656.077C344.821 649.186 346.103 646.984 346.103 646.984C346.799 644.498 347.57 643.666 348.014 643.382C348.131 643.303 348.263 643.255 348.4 643.241L350.478 645.925L350.864 646.417L351.04 646.634C351.031 646.524 351.031 646.413 351.04 646.303C352.146 647.031 354.711 648.723 356.236 649.942C358.231 651.53 358.751 651.351 360.519 651.181C361.72 650.962 362.882 650.532 363.964 649.905H364.048C364.315 650.061 364.596 650.185 364.886 650.273C364.886 650.273 367.702 652.958 367.97 648.052C368.238 643.146 364.592 644.176 364.592 644.176ZM291.59 701.296C291.299 701.201 291.019 701.071 290.752 700.908L291.59 701.296ZM287.19 648.194V648.893C287.173 648.676 287.182 648.43 287.19 648.194ZM331.184 710.37V710.644C331.134 710.503 331.109 710.502 331.184 710.37Z" fill="url(#paint0_linear_2261_642)"/>
<path d="M340.169 628.76H335.391V634.422H340.169V628.76Z" fill="#6C63FF"/>
<path d="M329.583 694.169C329.164 696.532 328.544 698.375 327.387 699.462C326.334 700.672 325.404 702.009 324.613 703.451C324.613 707.326 323.683 708.499 323.683 708.499L322.752 708.782H320.447C320.228 708.107 320.063 707.411 319.953 706.703C319.982 706.289 320.106 705.892 320.313 705.549C321.135 703.847 321.648 701.977 321.822 700.048L321.923 698.905C321.73 691.815 324.219 689.509 325.275 688.857C325.425 688.761 325.552 688.625 325.643 688.46C325.733 688.294 325.786 688.106 325.795 687.912L325.979 685.889L332.181 686.229C332.108 686.912 332.145 687.603 332.29 688.271C332.29 688.564 332.399 688.895 332.483 689.263C332.986 691.447 329.608 694.008 329.583 694.169Z" fill="#A0616A"/>
<path d="M340.102 689.272C339.903 690.307 339.623 691.319 339.264 692.297C338.943 693.174 338.764 694.109 338.736 695.057V695.152C338.654 697.96 338.138 700.73 337.211 703.337C336.297 705.908 335.09 709.254 334.696 709.954C334.339 710.956 334.255 712.055 334.453 713.111L330.958 712.837L331.017 706.22C330.811 702.431 331.385 698.64 332.693 695.142C332.983 694.352 333.147 693.511 333.179 692.656L333.355 688.261L333.405 686.966C333.405 686.966 339.582 685.974 340.111 687.552C340.236 688.117 340.233 688.709 340.102 689.272Z" fill="#A0616A"/>
<path d="M329.583 694.169C329.164 696.532 328.544 698.375 327.387 699.462C326.334 700.672 325.404 702.009 324.613 703.451C324.613 707.326 323.683 708.499 323.683 708.499L322.752 708.782H320.447C320.228 708.107 320.063 707.411 319.953 706.703C319.982 706.289 320.106 705.892 320.313 705.549C321.135 703.847 321.648 701.977 321.822 700.048L321.923 698.905C321.73 691.815 324.219 689.509 325.275 688.857C325.425 688.761 325.552 688.625 325.643 688.46C325.733 688.294 325.786 688.106 325.795 687.912L325.979 685.889L332.181 686.229C332.108 686.912 332.145 687.603 332.29 688.271C332.29 688.564 332.399 688.895 332.483 689.263C332.986 691.447 329.608 694.008 329.583 694.169Z" fill="#8E5362"/>
<path d="M340.102 689.272C339.903 690.307 339.623 691.319 339.264 692.297C338.943 693.174 338.764 694.109 338.736 695.057V695.152C338.654 697.96 338.138 700.73 337.211 703.337C336.297 705.908 335.09 709.254 334.696 709.954C334.339 710.956 334.255 712.055 334.453 713.111L330.958 712.837L331.017 706.22C330.811 702.431 331.385 698.64 332.693 695.142C332.983 694.352 333.147 693.511 333.179 692.656L333.355 688.261L333.405 686.966C333.405 686.966 339.582 685.974 340.111 687.552C340.236 688.117 340.233 688.709 340.102 689.272Z" fill="#8E5362"/>
<path opacity="0.1" d="M332.299 688.318L325.803 687.959L325.987 685.936L332.19 686.276C332.116 686.959 332.153 687.651 332.299 688.318Z" fill="black"/>
<path opacity="0.1" d="M340.102 689.273L333.397 688.252L333.447 686.957C333.447 686.957 339.624 685.965 340.152 687.543C340.266 688.115 340.248 688.71 340.102 689.273Z" fill="black"/>
<path d="M343.639 675.718L340.949 689.027L332.986 687.817V683.242L332.299 687.968L322.752 687.439L323.247 677.127C323.757 675.072 324.113 672.972 324.311 670.85C324.496 668.516 325.476 662.769 325.988 660.075C326.139 659.13 326.239 658.619 326.239 658.619C326.239 658.619 342.6 662.457 343.672 663.846C343.902 664.276 344.031 664.763 344.05 665.264C344.377 668.506 343.639 675.718 343.639 675.718Z" fill="#2F2E41"/>
<path opacity="0.1" d="M324.537 676.588C324.537 676.588 330.974 672.807 332.542 673.582L324.537 676.588Z" fill="black"/>
<path opacity="0.1" d="M328.049 664.187C328.049 664.187 333.396 668.771 333.564 670.009L328.049 664.187Z" fill="black"/>
<path opacity="0.1" d="M326.591 679.925C326.591 679.925 330.463 679.745 331.695 680.87L326.591 679.925Z" fill="black"/>
<path opacity="0.1" d="M333.581 675.028C333.581 675.028 335.417 681.815 334.621 683.677C333.824 685.539 333.003 683.242 333.003 683.242L333.581 675.028Z" fill="black"/>
<path d="M330.983 710.427C330.983 710.427 329.164 710.739 329.499 715.692C329.835 720.645 330.338 721.505 330.983 721.571C331.628 721.637 334.847 722.516 334.688 720.701C334.528 718.886 334.352 714.822 334.579 714.208C334.805 713.593 335.174 711.949 334.344 711.542L334.16 712.487C334.16 712.487 332.408 710.663 331.36 711.996C331.318 711.674 331.248 711.357 331.151 711.051C331.067 710.758 330.815 710.606 330.983 710.427Z" fill="#2F2E41"/>
<path d="M364.131 649.659C364.131 649.659 363.721 649.914 363.109 650.245C362.057 650.861 360.925 651.289 359.756 651.511C358.08 651.672 357.51 651.861 355.565 650.282C354.065 649.073 351.551 647.381 350.461 646.662L349.983 646.341H349.933L350.838 643.505L354.048 641.615L354.887 642.39L357.258 644.687C357.361 644.872 357.503 645.027 357.671 645.135C357.839 645.244 358.028 645.305 358.222 645.311C358.817 645.263 362.011 645.566 362.011 645.566L362.614 645.679L363.888 645.915L364.131 649.659Z" fill="#A0616A"/>
<path opacity="0.1" d="M364.131 649.659C364.131 649.659 363.721 649.914 363.109 650.245C362.463 649.876 361.667 649.177 361.977 648.033C362.287 646.889 362.329 646.19 362.556 645.613L363.83 645.85L364.131 649.659Z" fill="black"/>
<path d="M363.704 644.64C363.704 644.64 367.283 643.477 367.015 648.354C366.746 653.232 363.989 650.557 363.989 650.557C363.989 650.557 361.642 649.867 362.137 648.033C362.631 646.199 362.489 645.084 363.704 644.64Z" fill="#A0616A"/>
<path d="M326.566 628.854L322.836 630.622H322.777H322.736L322.501 630.49C321.537 629.951 318.226 628.098 316.139 626.992C313.625 625.697 314.052 624.393 314.052 624.393L313.692 610.772L313.063 608.334C313.063 608.334 312.611 600.035 316.19 597.936C319.768 595.838 317.455 609.941 317.455 609.941L317.715 612.871C317.899 614.743 318.228 616.593 318.696 618.4C318.855 618.991 318.953 619.6 318.989 620.215C319.098 622.2 319.919 622.106 319.919 622.106C321.22 622.334 322.476 622.814 323.632 623.523C324.061 623.783 324.473 624.076 324.864 624.402L326.566 628.854Z" fill="#A0616A"/>
<path d="M339.85 635.358L336.666 634.979C337.231 634.012 337.685 632.967 338.015 631.87C338.074 631.662 338.122 631.451 338.157 631.236C338.279 630.704 338.216 630.14 337.981 629.658C337.051 628.108 343.53 625.943 343.53 625.943C343.45 626.8 343.425 627.663 343.455 628.524C343.479 629.119 343.534 629.713 343.622 630.301C343.721 631.43 344.197 632.474 344.955 633.221C346.991 634.8 339.85 635.358 339.85 635.358Z" fill="#8E5362"/>
<path opacity="0.1" d="M339.85 635.358L336.666 634.98C337.231 634.012 337.685 632.967 338.015 631.87C338.384 632.465 338.509 632.446 339.029 632.569C339.029 632.569 342.239 633.108 343.622 630.301C343.721 631.43 344.197 632.474 344.955 633.221C346.991 634.8 339.85 635.358 339.85 635.358Z" fill="black"/>
<path opacity="0.1" d="M350.428 646.662C350.419 646.772 350.419 646.883 350.428 646.993L349.933 646.341L350.838 643.505L354.048 641.615L354.887 642.39C353.696 642.806 350.486 644.337 350.428 646.662Z" fill="black"/>
<path opacity="0.1" d="M326.566 628.854L322.836 630.622H322.736H322.451L322.501 630.461C322.811 629.611 324.261 625.452 323.632 623.486C324.061 623.745 324.473 624.039 324.865 624.365L326.566 628.854Z" fill="black"/>
<path opacity="0.1" d="M344.016 665.245C342.566 665.094 328.032 663.582 326.675 661.171C326.463 660.777 326.222 660.404 325.954 660.056C326.105 659.111 326.205 658.6 326.205 658.6C326.205 658.6 342.566 662.438 343.639 663.827C343.868 664.257 343.998 664.744 344.016 665.245Z" fill="black"/>
<path d="M339.029 632.748C339.029 632.748 342.272 633.297 343.647 630.442C343.647 630.442 345.944 632.569 347.318 632.758C348.693 632.947 355.054 641.974 355.054 641.974C355.054 641.974 349.95 643.864 350.277 646.804L347.829 643.647C347.829 643.647 346.622 643.59 345.583 647.362C345.583 647.362 344.318 649.526 344.485 656.398C344.653 663.27 344.1 664.905 344.1 664.905C344.1 664.905 328.066 663.355 326.641 660.812C325.216 658.269 324.965 659.517 324.965 659.517C324.869 656.541 325.296 653.573 326.222 650.783C327.705 646.889 327.379 635.66 327.379 635.66C327.379 635.66 327.538 630.149 322.71 630.65C322.71 630.65 324.739 625.319 323.808 623.277C325.365 623.75 326.96 624.045 328.569 624.156C329.784 624.175 330.981 624.498 332.072 625.102C332.635 625.38 333.132 625.804 333.522 626.34C333.803 626.769 334.203 627.08 334.658 627.226C335.113 627.371 335.598 627.342 336.037 627.143C336.425 628.506 336.904 629.833 337.47 631.113L337.663 631.51C337.763 631.69 337.855 631.869 337.956 632.03C338.056 632.252 338.21 632.438 338.4 632.565C338.59 632.692 338.808 632.756 339.029 632.748Z" fill="#F86D70"/>
<path opacity="0.1" d="M343.454 628.523C343.28 628.802 343.087 629.064 342.876 629.308C342.34 629.929 341.698 630.422 340.99 630.758C340.282 631.094 339.521 631.266 338.752 631.264C338.551 631.264 338.35 631.264 338.157 631.264C338.278 630.732 338.216 630.168 337.981 629.686C337.051 628.136 343.53 625.971 343.53 625.971C343.451 626.819 343.426 627.672 343.454 628.523Z" fill="black"/>
<path d="M344.519 624.582C344.519 625.868 344.181 627.126 343.547 628.195C342.913 629.265 342.013 630.098 340.959 630.59C339.906 631.082 338.746 631.211 337.628 630.96C336.509 630.709 335.481 630.09 334.675 629.181C333.869 628.271 333.319 627.112 333.097 625.851C332.874 624.589 332.989 623.282 333.425 622.094C333.861 620.905 334.601 619.89 335.549 619.175C336.497 618.46 337.612 618.079 338.753 618.079C339.511 618.073 340.264 618.237 340.966 618.561C341.668 618.886 342.306 619.365 342.842 619.97C343.379 620.575 343.804 621.294 344.091 622.086C344.379 622.878 344.525 623.726 344.519 624.582Z" fill="#A0616A"/>
<path opacity="0.1" d="M347.369 639.441L347.486 643.789C347.486 643.789 349.213 642.229 349.263 640.736C349.313 639.242 347.369 639.441 347.369 639.441Z" fill="black"/>
<path opacity="0.1" d="M333.48 643.789C333.48 643.789 338.015 650.803 340.647 651.512C343.278 652.22 334.469 646.067 333.48 643.789Z" fill="black"/>
<path opacity="0.1" d="M338.283 644.517C338.283 644.517 340.797 647.731 342.625 648.137L338.283 644.517Z" fill="black"/>
<path opacity="0.1" d="M329.39 652.626C329.39 652.626 334 657.731 336.64 658.043L329.39 652.626Z" fill="black"/>
<path opacity="0.1" d="M344.519 624.582C344.513 626.284 343.91 627.915 342.843 629.119L342.206 628.684C341.964 628.538 341.754 628.331 341.594 628.079C341.435 627.653 341.389 627.183 341.46 626.728C341.508 626.247 341.457 625.76 341.312 625.304C341.166 624.849 340.93 624.437 340.622 624.1C339.524 623.155 337.772 623.656 336.674 622.692C336.408 622.433 336.171 622.138 335.97 621.813L334.931 620.244L334.713 619.941C335.524 619.043 336.551 618.436 337.667 618.195C338.783 617.953 339.937 618.089 340.984 618.585C342.032 619.081 342.926 619.914 343.555 620.981C344.184 622.048 344.519 623.301 344.519 624.582Z" fill="black"/>
<path d="M335.257 616.264C335.801 615.867 336.376 615.529 336.976 615.253C337.545 614.931 338.065 614.515 338.652 614.232C339.222 613.907 339.88 613.832 340.496 614.024C341.786 614.525 342.273 616.557 343.605 616.916C343.823 616.973 344.058 616.973 344.284 617.02C344.714 617.113 345.122 617.306 345.482 617.588C345.841 617.87 346.144 618.233 346.371 618.655C346.813 619.517 347.041 620.496 347.033 621.491C347.048 622.043 346.977 622.593 346.824 623.117C346.43 624.327 345.449 625.158 344.779 626.208C344.153 627.209 343.819 628.405 343.823 629.629L342.214 628.505C341.972 628.358 341.762 628.151 341.602 627.9C341.444 627.476 341.397 627.01 341.468 626.557C341.516 626.075 341.465 625.586 341.32 625.129C341.175 624.672 340.939 624.259 340.63 623.92C339.532 622.975 337.78 623.485 336.682 622.512C336.412 622.258 336.174 621.962 335.978 621.633C335.635 621.113 335.282 620.593 334.939 620.064C334.632 619.719 334.377 619.32 334.185 618.882C333.95 617.984 334.696 616.755 335.257 616.264Z" fill="#2F2E41"/>
<path opacity="0.1" d="M342.424 628.268C342.178 628.128 341.965 627.924 341.803 627.673C341.645 627.246 341.598 626.777 341.669 626.321C341.719 625.84 341.669 625.352 341.524 624.896C341.378 624.44 341.141 624.029 340.831 623.693C339.742 622.748 337.99 623.249 336.883 622.285C336.617 622.026 336.38 621.731 336.179 621.406C335.836 620.886 335.492 620.357 335.14 619.837C334.831 619.491 334.576 619.088 334.386 618.646C334.351 618.232 334.402 617.814 334.535 617.425C334.667 617.037 334.877 616.688 335.148 616.406C334.826 616.696 334.572 617.071 334.408 617.498C334.244 617.925 334.176 618.39 334.21 618.854C334.402 619.292 334.657 619.691 334.964 620.035C335.308 620.565 335.66 621.085 336.003 621.604C336.2 621.934 336.437 622.23 336.707 622.484C337.805 623.429 339.557 622.909 340.655 623.892C340.964 624.23 341.2 624.644 341.345 625.101C341.49 625.558 341.541 626.046 341.493 626.529C341.423 626.982 341.469 627.448 341.627 627.871C341.788 628.123 341.997 628.33 342.239 628.476L343.848 629.601C343.848 629.497 343.848 629.384 343.848 629.28L342.424 628.268Z" fill="black"/>
<path d="M320.213 705.776C320.213 705.776 318.604 706.154 318.931 711.107C319.257 716.06 319.769 716.93 320.414 716.986C321.059 717.043 324.286 717.932 324.119 716.126C323.951 714.321 323.792 710.247 324.01 709.623C324.228 708.999 325.099 707.336 324.27 706.929L323.599 707.874C323.599 707.874 321.847 706.05 320.8 707.374C320.8 707.411 319.827 706.201 320.213 705.776Z" fill="#2F2E41"/>
<path opacity="0.1" d="M321.227 708.839C321.57 709.018 321.897 709.255 322.241 709.444C322.582 709.643 322.963 709.744 323.347 709.737C323.51 709.728 323.668 709.665 323.8 709.557" fill="black"/>
<path opacity="0.1" d="M331.779 713.697C331.967 713.93 332.166 714.15 332.374 714.359C332.729 714.571 333.131 714.663 333.531 714.624C333.595 714.637 333.66 714.637 333.724 714.624C333.797 714.585 333.859 714.522 333.9 714.444L334.118 714.132" fill="black"/>
<path d="M304.716 631.331C304.716 631.331 303.978 623.401 306.861 625.357C309.744 627.314 307.75 630.773 307.75 630.773L307.079 633.221L304.716 631.331Z" fill="#FFC1C7"/>
<path d="M309.325 606.009L311.001 604.184C311.001 604.184 314.153 593.938 317.288 596.566C320.422 599.193 313.315 605.857 313.315 605.857L311.437 608.334L309.325 606.009Z" fill="#FFC1C7"/>
<path d="M285.229 646.53L285.145 648.628C285.145 648.628 286.653 651.606 287.29 651.823C287.927 652.041 287.86 645.538 287.86 645.538L285.229 646.53Z" fill="#F86D70"/>
<path opacity="0.1" d="M285.061 646.709L284.977 648.817C284.977 648.817 286.494 651.785 287.123 652.003C287.752 652.22 287.701 645.726 287.701 645.726L285.061 646.709Z" fill="black"/>
<path d="M287.751 644.224L287.86 651.984H295.521L294.943 647.466L287.751 644.224Z" fill="#FFC1C7"/>
<path d="M289.537 663.582L289.897 666.058L294.364 677.268C294.364 677.268 296.401 680.794 294.75 683.762C293.099 686.73 291.397 691.38 291.129 694.159C290.861 696.938 288.69 699.736 288.69 699.736L293.409 701.995C293.409 701.995 293.736 697.562 295.085 695.492C296.435 693.422 300.634 684.282 300.634 684.282C300.634 684.282 301.975 682.921 301.673 678.866C301.371 674.811 301.405 671.966 301.405 671.966L300.935 665.5L289.537 663.582Z" fill="#2F2E41"/>
<path opacity="0.1" d="M289.537 663.582L289.897 666.058L294.364 677.268C294.364 677.268 296.401 680.794 294.75 683.762C293.099 686.73 291.397 691.38 291.129 694.159C290.861 696.938 288.69 699.736 288.69 699.736L293.409 701.995C293.409 701.995 293.736 697.562 295.085 695.492C296.435 693.422 300.634 684.282 300.634 684.282C300.634 684.282 301.975 682.921 301.673 678.866C301.371 674.811 301.405 671.966 301.405 671.966L300.935 665.5L289.537 663.582Z" fill="black"/>
<path d="M289.101 699.434C289.101 699.434 284.072 701.164 285.749 704.009C287.425 706.854 292.856 712.279 295.052 712.09C297.248 711.901 296.368 710.077 296.368 710.077L294.532 708.035C294.377 706.172 294.312 704.301 294.34 702.43C294.474 701.164 292.772 700.54 292.554 701.315C292.336 702.09 289.101 699.434 289.101 699.434Z" fill="#F86D70"/>
<path d="M292.286 648.685L288.28 649.177C287.921 649.221 287.59 649.416 287.353 649.722C287.116 650.029 286.989 650.424 286.997 650.831C287.039 652.636 287.073 655.557 286.846 656.029C286.369 657.854 286.406 659.801 286.952 661.601C287.499 663.402 288.528 664.966 289.897 666.077L295.848 668.213L286.302 668.988L286.603 674.962L288.078 674.017L306.199 674.962C306.199 674.962 311.328 674.376 307.875 668.09C304.422 661.805 296.979 655.651 296.979 655.651L296.896 650.755L296.351 649.337L292.286 648.685Z" fill="#2F2E41"/>
<path opacity="0.1" d="M297.247 668.101C297.898 667.782 298.6 667.617 299.309 667.617C300.018 667.617 300.72 667.782 301.371 668.101H297.247Z" fill="black"/>
<path d="M286.763 668.913C286.763 668.913 280.896 667.968 280.837 669.225C280.778 670.482 281.675 682.836 284.483 682.004C287.291 681.172 286.109 677.079 286.109 677.079L288.221 674.792C288.221 674.792 288.439 673.525 287.039 673.648L286.763 668.913Z" fill="#F86D70"/>
<path d="M296.535 634.299L298.873 637.305C298.873 637.305 299.888 638.722 301.094 636.558C302.301 634.393 304.548 630.527 304.548 630.527C304.548 630.527 307.062 633.004 307.707 632.503C308.353 632.002 301.639 642.815 301.639 642.815C301.639 642.815 299.502 646.369 296.317 642.163L295.387 641.671L296.535 634.299Z" fill="#F86D70"/>
<path opacity="0.1" d="M296.376 634.299L298.706 637.305C298.706 637.305 299.72 638.722 300.927 636.558C302.134 634.393 304.389 630.527 304.389 630.527C304.389 630.527 306.903 633.004 307.54 632.503C308.177 632.002 301.48 642.815 301.48 642.815C301.48 642.815 299.335 646.369 296.15 642.163L295.219 641.671L296.376 634.299Z" fill="black"/>
<path d="M289.402 622.106C292.087 622.106 294.263 619.651 294.263 616.623C294.263 613.596 292.087 611.141 289.402 611.141C286.717 611.141 284.541 613.596 284.541 616.623C284.541 619.651 286.717 622.106 289.402 622.106Z" fill="#FFC1C7"/>
<path opacity="0.1" d="M289.403 619.563C289.403 619.563 285.212 621.794 285.723 625.697C286.05 628.624 286.243 631.567 286.302 634.516C286.302 634.516 288.196 637.673 285.681 643.713C285.681 643.713 284.072 646.776 285.145 649.006C285.145 649.006 286.335 645.471 289.403 648.061C292.47 650.651 297.415 651.842 297.415 651.842C297.415 651.842 294.859 639.214 296.426 637.446C296.426 637.446 299.142 632.9 296.678 630.026C294.214 627.153 295.437 624.45 295.437 624.45L303.375 619.648C303.375 619.648 305.051 619.648 307.297 615.725C308.751 613.189 310.356 610.767 312.1 608.475C312.1 608.475 310.423 605.64 308.806 605.385C308.261 606.193 307.893 607.136 307.733 608.135C307.498 609.203 305.914 610.971 304.472 612.426C303.458 613.447 302.469 614.515 301.489 615.574C300.76 616.368 299.134 617.464 295.622 618.136C289.788 619.223 289.403 619.563 289.403 619.563Z" fill="black"/>
<path d="M289.403 619.194C289.403 619.194 285.212 621.425 285.723 625.319C286.049 628.249 286.242 631.196 286.302 634.148C286.302 634.148 288.196 637.305 285.681 643.335C285.681 643.335 284.072 646.407 285.145 648.628C285.145 648.628 286.335 645.103 289.403 647.683C292.47 650.264 297.415 651.464 297.415 651.464C297.415 651.464 294.859 638.836 296.426 637.068C296.426 637.068 299.142 632.522 296.678 629.639C294.214 626.756 295.437 624.072 295.437 624.072L303.375 619.27C303.375 619.27 305.051 619.27 307.297 615.338C308.752 612.806 310.357 610.387 312.1 608.097C312.1 608.097 310.423 605.214 308.806 604.997C308.262 605.81 307.895 606.755 307.733 607.757C307.498 608.825 305.914 610.593 304.472 612.048C303.458 613.069 302.469 614.128 301.489 615.196C300.76 615.98 299.134 617.086 295.622 617.758C289.788 618.816 289.403 619.194 289.403 619.194Z" fill="#F86D70"/>
<path opacity="0.1" d="M292.998 642.531C292.998 642.531 296.233 647.919 296.351 648.846C296.317 648.846 295.864 643.061 292.998 642.531Z" fill="black"/>
<path opacity="0.1" d="M288.74 624.393C289.424 625.267 290.382 625.808 291.412 625.901C292.443 625.995 293.465 625.633 294.264 624.894C293.361 625.237 292.406 625.37 291.456 625.284C290.507 625.197 289.583 624.894 288.74 624.393Z" fill="black"/>
<path opacity="0.1" d="M290.492 610.886C290.433 610.607 290.312 610.35 290.14 610.139C289.471 609.009 288.556 608.091 287.483 607.474C286.749 607.163 285.946 607.126 285.192 607.368C284.438 607.609 283.772 608.117 283.292 608.816C282.899 609.421 282.655 610.149 282.312 610.791C281.635 611.965 280.718 612.937 279.638 613.627C279.001 614.071 278.331 614.449 277.727 614.95C276.655 615.898 275.84 617.165 275.373 618.609C274.907 620.052 274.808 621.614 275.087 623.117C275.322 624.431 275.833 625.735 275.699 627.068C275.526 628.092 275.154 629.061 274.609 629.904C274.054 630.759 273.639 631.719 273.386 632.739C273.262 633.244 273.267 633.778 273.4 634.28C273.534 634.782 273.79 635.231 274.14 635.575C274.44 635.753 274.721 635.968 274.978 636.218C275.139 636.424 275.272 636.657 275.372 636.908C275.763 637.724 276.297 638.441 276.943 639.015C277.589 639.588 278.332 640.007 279.127 640.244C279.839 640.452 280.803 640.377 281.046 639.602C281.073 639.466 281.119 639.335 281.18 639.214C281.415 638.836 281.926 639.053 282.287 639.214C283.113 639.705 284.02 639.998 284.952 640.074C285.317 640.133 285.69 640.084 286.033 639.932C286.328 639.765 286.581 639.519 286.771 639.214C287.551 637.863 287.989 636.298 288.036 634.686C288.17 633.652 288.17 632.602 288.036 631.567C287.76 629.923 286.871 628.382 287.005 626.718C287.14 625.055 288.422 623.476 288.623 621.699C288.722 620.77 288.516 619.832 288.045 619.062C287.871 618.824 287.722 618.564 287.601 618.287C287.545 618.146 287.529 617.99 287.553 617.839C287.577 617.687 287.64 617.547 287.735 617.436C287.838 617.351 287.955 617.287 288.078 617.247C288.564 616.998 288.978 616.6 289.275 616.099C289.571 615.598 289.737 615.013 289.755 614.412C289.745 613.961 289.781 613.51 289.864 613.069C290.04 612.398 290.584 611.633 290.492 610.886Z" fill="black"/>
<path d="M290.165 610.886C290.103 610.607 289.979 610.35 289.805 610.139C289.137 609.008 288.222 608.09 287.148 607.474C286.414 607.163 285.611 607.126 284.857 607.368C284.103 607.609 283.437 608.117 282.957 608.816C282.601 609.455 282.274 610.115 281.977 610.791C281.3 611.965 280.383 612.937 279.303 613.627C278.666 614.071 277.995 614.449 277.392 614.95C276.321 615.899 275.506 617.166 275.038 618.609C274.57 620.051 274.468 621.613 274.743 623.117C274.986 624.431 275.498 625.735 275.364 627.068C275.191 628.094 274.816 629.064 274.266 629.904C273.713 630.759 273.301 631.72 273.05 632.739C272.926 633.244 272.931 633.778 273.065 634.28C273.198 634.782 273.455 635.231 273.805 635.575C274.104 635.755 274.385 635.97 274.643 636.218C274.801 636.425 274.931 636.657 275.028 636.908C275.422 637.723 275.959 638.439 276.606 639.013C277.253 639.587 277.996 640.006 278.792 640.244C279.504 640.452 280.468 640.377 280.711 639.602C280.738 639.466 280.783 639.335 280.845 639.214C281.08 638.836 281.591 639.053 281.951 639.214C282.775 639.706 283.679 639.999 284.608 640.074C284.976 640.133 285.351 640.084 285.698 639.932C285.992 639.768 286.243 639.52 286.427 639.214C287.211 637.865 287.649 636.298 287.693 634.686C287.831 633.653 287.831 632.601 287.693 631.567C287.416 629.923 286.528 628.382 286.653 626.718C286.779 625.055 288.078 623.476 288.271 621.699C288.375 620.77 288.169 619.83 287.693 619.062C287.524 618.821 287.378 618.562 287.257 618.287C287.202 618.146 287.185 617.99 287.209 617.839C287.233 617.687 287.296 617.547 287.391 617.436C287.493 617.347 287.61 617.283 287.735 617.247C288.221 616.998 288.636 616.601 288.932 616.1C289.229 615.598 289.394 615.014 289.411 614.412C289.408 613.961 289.447 613.511 289.528 613.069C289.713 612.398 290.257 611.633 290.165 610.886Z" fill="#2F2E41"/>
<g opacity="0.1">
<path d="M280.351 639.233C280.289 639.353 280.244 639.484 280.216 639.62C280.127 639.837 279.985 640.02 279.807 640.149C279.629 640.278 279.422 640.347 279.211 640.348C279.839 640.414 280.501 640.254 280.711 639.62C280.738 639.484 280.783 639.353 280.845 639.233C280.886 639.162 280.944 639.107 281.013 639.072C280.902 639.014 280.777 638.998 280.658 639.027C280.538 639.056 280.43 639.128 280.351 639.233Z" fill="black"/>
<path d="M290.173 610.885C290.114 610.605 289.99 610.347 289.813 610.139C289.145 609.017 288.229 608.111 287.156 607.511C286.675 607.295 286.155 607.208 285.639 607.256C285.983 607.264 286.323 607.338 286.645 607.473C287.718 608.073 288.634 608.979 289.302 610.101C289.479 610.309 289.603 610.567 289.662 610.848C289.754 611.594 289.209 612.36 289.025 613.05C288.943 613.491 288.906 613.942 288.916 614.392C288.897 614.994 288.73 615.577 288.434 616.078C288.138 616.578 287.725 616.976 287.24 617.228C287.115 617.264 286.998 617.328 286.896 617.417C286.8 617.527 286.737 617.667 286.713 617.819C286.689 617.971 286.706 618.127 286.762 618.268C286.883 618.544 287.032 618.804 287.206 619.043C287.682 619.811 287.888 620.75 287.785 621.68C287.583 623.457 286.301 624.913 286.159 626.69C286.016 628.467 286.921 629.903 287.198 631.548C287.336 632.582 287.336 633.633 287.198 634.667C287.154 636.278 286.719 637.844 285.941 639.195C285.751 639.499 285.498 639.746 285.203 639.913C285.033 639.997 284.852 640.048 284.667 640.064C285.016 640.105 285.369 640.053 285.698 639.913C285.992 639.746 286.246 639.499 286.435 639.195C287.214 637.844 287.649 636.278 287.692 634.667C287.831 633.633 287.831 632.582 287.692 631.548C287.416 629.903 286.527 628.363 286.653 626.69C286.779 625.017 288.078 623.457 288.279 621.68C288.383 620.75 288.177 619.811 287.701 619.043C287.527 618.804 287.378 618.544 287.257 618.268C287.2 618.127 287.183 617.971 287.207 617.819C287.231 617.667 287.295 617.527 287.391 617.417C287.493 617.328 287.609 617.264 287.734 617.228C288.221 616.979 288.636 616.582 288.932 616.08C289.228 615.579 289.394 614.994 289.411 614.392C289.408 613.941 289.447 613.492 289.528 613.05C289.721 612.398 290.266 611.632 290.173 610.885Z" fill="black"/>
</g>
<path opacity="0.1" d="M283.938 676.474C284.221 676.822 284.584 677.072 284.988 677.198C285.391 677.323 285.817 677.318 286.218 677.183" fill="black"/>
<path opacity="0.1" d="M294.49 708.196C294.333 708.342 294.15 708.447 293.953 708.505C293.756 708.562 293.55 708.569 293.35 708.527" fill="black"/>
<path d="M38.806 712.591L49.9701 705.19C48.4591 702.284 46.5303 699.68 44.2624 697.487L23.2082 704.878L39.7029 693.933C35.6183 691.41 31.0218 690.131 26.3656 690.22C21.7095 690.309 17.1541 691.764 13.1478 694.441C9.1415 697.118 5.82237 700.926 3.51703 705.489C1.21169 710.052 -0.000419342 715.213 1.08827e-07 720.465C1.08827e-07 737.167 12.0106 737.753 26.8206 737.753C41.6306 737.753 53.6412 737.167 53.6412 720.465C53.649 716.232 52.8635 712.044 51.3363 708.177L38.806 712.591Z" fill="#DEAC80"/>
<path opacity="0.1" d="M41.6473 728.83C40.4584 727.486 39.1301 726.309 37.6913 725.323C35.6714 723.811 33.5676 722.261 31.1789 721.741C29.0836 721.287 26.9212 721.675 24.7839 721.533C21.0728 721.278 17.5794 719.471 14.986 716.467C13.4606 714.69 12.262 712.506 10.4265 711.155C8.37578 709.777 5.95535 709.274 3.60402 709.737C2.92268 709.847 2.24807 710.005 1.58409 710.209C0.534475 713.499 -0.00149072 716.969 3.11409e-06 720.465C3.11409e-06 737.167 12.0106 737.753 26.8206 737.753C34.0119 737.753 40.5326 737.611 45.3519 735.56L44.5138 733.868C43.7505 732.059 42.7874 730.366 41.6473 728.83Z" fill="black"/>
<path d="M653.165 721.838L664.329 714.437C662.818 711.531 660.889 708.927 658.621 706.734L637.567 714.125L654.062 703.18C649.977 700.657 645.381 699.378 640.725 699.467C636.068 699.556 631.513 701.011 627.507 703.688C623.5 706.365 620.181 710.173 617.876 714.736C615.571 719.299 614.358 724.46 614.359 729.712C614.359 746.414 626.369 747 641.179 747C655.989 747 668 746.414 668 729.712C668.008 725.479 667.222 721.291 665.695 717.424L653.165 721.838Z" fill="#DEAC80"/>
<path opacity="0.1" d="M656.006 738.077C654.817 736.733 653.489 735.556 652.05 734.57C650.03 733.058 647.927 731.508 645.538 730.988C643.442 730.534 641.28 730.922 639.143 730.78C635.432 730.524 631.938 728.718 629.345 725.714C627.819 723.937 626.621 721.753 624.785 720.401C622.735 719.024 620.314 718.521 617.963 718.984C617.282 719.094 616.607 719.252 615.943 719.456C614.893 722.746 614.357 726.216 614.359 729.712C614.359 746.414 626.369 747 641.179 747C648.371 747 654.891 746.858 659.711 744.807L658.873 743.115C658.109 741.306 657.146 739.613 656.006 738.077Z" fill="black"/>
<path d="M154.914 699.661L146.189 693.876C147.374 691.61 148.88 689.579 150.648 687.864L167.101 693.63L154.21 685.123C157.396 683.155 160.981 682.155 164.614 682.221C168.246 682.287 171.801 683.417 174.929 685.499C178.057 687.582 180.652 690.547 182.458 694.101C184.264 697.656 185.219 701.679 185.23 705.776C185.23 718.83 175.851 719.283 164.276 719.283C152.702 719.283 143.323 718.83 143.323 705.776C143.32 702.474 143.934 699.208 145.125 696.192L154.914 699.661Z" fill="#B99470"/>
<path opacity="0.1" d="M152.693 712.393C153.62 711.346 154.655 710.429 155.777 709.661C157.288 708.342 159.018 707.378 160.865 706.826C162.541 706.466 164.217 706.769 165.894 706.665C168.791 706.458 171.517 705.047 173.546 702.704C174.736 701.315 175.675 699.604 177.108 698.545C178.71 697.47 180.602 697.077 182.439 697.44C182.97 697.529 183.496 697.652 184.014 697.808C184.825 700.365 185.236 703.061 185.23 705.776C185.23 718.83 175.851 719.284 164.276 719.284C158.66 719.284 153.565 719.17 149.801 717.573L150.43 716.249C151.036 714.861 151.796 713.565 152.693 712.393Z" fill="black"/>
<path d="M221.966 699.661L213.24 693.876C214.425 691.61 215.931 689.579 217.699 687.864L234.152 693.63L221.262 685.123C224.448 683.155 228.033 682.155 231.665 682.221C235.297 682.287 238.852 683.417 241.98 685.499C245.109 687.582 247.703 690.547 249.509 694.101C251.315 697.656 252.27 701.679 252.281 705.776C252.281 718.83 242.902 719.283 231.328 719.283C219.753 719.283 210.374 718.83 210.374 705.776C210.371 702.474 210.985 699.208 212.176 696.192L221.966 699.661Z" fill="#B99470"/>
<path opacity="0.1" d="M219.744 712.393C220.671 711.346 221.707 710.429 222.829 709.661C224.34 708.342 226.07 707.378 227.916 706.826C229.593 706.466 231.269 706.769 232.945 706.665C235.842 706.458 238.569 705.047 240.597 702.704C241.788 701.315 242.726 699.604 244.159 698.545C245.762 697.47 247.653 697.077 249.49 697.44C250.021 697.529 250.547 697.652 251.066 697.808C251.877 700.365 252.288 703.061 252.281 705.776C252.281 718.83 242.902 719.284 231.328 719.284C225.712 719.284 220.616 719.17 216.853 717.573L217.481 716.249C218.087 714.861 218.848 713.565 219.744 712.393Z" fill="black"/>
<path d="M465.865 699.661L457.14 693.876C458.324 691.61 459.831 689.579 461.599 687.864L478.052 693.63L465.161 685.123C468.347 683.155 471.932 682.155 475.564 682.221C479.197 682.287 482.751 683.417 485.88 685.499C489.008 687.582 491.602 690.547 493.408 694.101C495.214 697.656 496.17 701.679 496.181 705.776C496.181 718.83 486.802 719.283 475.227 719.283C463.652 719.283 454.273 718.83 454.273 705.776C454.271 702.474 454.885 699.208 456.075 696.192L465.865 699.661Z" fill="#B99470"/>
<path opacity="0.1" d="M463.645 712.393C464.571 711.346 465.607 710.429 466.729 709.661C468.24 708.342 469.97 707.378 471.816 706.826C473.493 706.466 475.169 706.769 476.845 706.665C479.743 706.458 482.469 705.047 484.498 702.704C485.688 701.315 486.626 699.604 488.06 698.545C489.662 697.47 491.553 697.077 493.39 697.44C493.921 697.529 494.447 697.652 494.966 697.808C495.777 700.365 496.188 703.061 496.181 705.776C496.181 718.83 486.802 719.284 475.228 719.284C469.612 719.284 464.516 719.17 460.753 717.573L461.382 716.249C461.987 714.861 462.748 713.565 463.645 712.393Z" fill="black"/>
<path d="M250.471 638.94C252.002 635.923 252.795 632.501 252.767 629.024C252.767 620.064 247.839 612.795 241.771 612.795C235.703 612.795 230.775 620.064 230.775 629.024C230.747 632.501 231.539 635.923 233.071 638.94C231.564 641.971 230.772 645.389 230.772 648.864C230.772 652.34 231.564 655.758 233.071 658.789C231.562 661.82 230.77 665.238 230.77 668.714C230.77 672.19 231.562 675.608 233.071 678.639C231.564 681.671 230.772 685.088 230.772 688.564C230.772 692.039 231.564 695.457 233.071 698.488C231.538 701.505 230.746 704.927 230.775 708.404C230.775 717.365 235.703 724.633 241.771 724.633C247.839 724.633 252.767 717.365 252.767 708.404C252.796 704.927 252.004 701.505 250.471 698.488C251.978 695.457 252.77 692.039 252.77 688.564C252.77 685.088 251.978 681.671 250.471 678.639C251.98 675.608 252.772 672.19 252.772 668.714C252.772 665.238 251.98 661.82 250.471 658.789C251.978 655.758 252.77 652.34 252.77 648.864C252.77 645.389 251.978 641.971 250.471 638.94Z" fill="#3F3D56"/>
<path d="M241.771 625.423C247.844 625.423 252.767 618.157 252.767 609.194C252.767 600.23 247.844 592.964 241.771 592.964C235.698 592.964 230.774 600.23 230.774 609.194C230.774 618.157 235.698 625.423 241.771 625.423Z" fill="#3F3D56"/>
<path d="M241.771 605.593C247.844 605.593 252.767 598.327 252.767 589.363C252.767 580.4 247.844 573.134 241.771 573.134C235.698 573.134 230.774 580.4 230.774 589.363C230.774 598.327 235.698 605.593 241.771 605.593Z" fill="#3F3D56"/>
<path d="M282.924 453.62C284.424 451.464 285.791 449.193 287.014 446.824L258.148 441.474L289.386 441.739C292.382 434.385 294.016 426.42 294.189 418.329C294.362 410.239 293.07 402.194 290.392 394.686L248.484 419.205L287.131 387.171C283.507 380.123 278.635 373.991 272.82 369.158C267.004 364.324 260.368 360.892 253.325 359.075C246.283 357.258 238.984 357.095 231.883 358.596C224.782 360.097 218.031 363.23 212.05 367.8C206.069 372.37 200.986 378.279 197.117 385.16C193.248 392.041 190.676 399.746 189.562 407.796C188.447 415.846 188.813 424.068 190.637 431.952C192.461 439.835 195.705 447.211 200.165 453.62C197.826 456.978 195.814 460.609 194.164 464.452L231.654 486.419L191.675 471.296C188.87 480.655 188.177 490.655 189.659 500.392C191.142 510.129 194.752 519.296 200.165 527.064C194.058 535.823 190.259 546.343 189.202 557.422C188.146 568.501 189.876 579.691 194.193 589.714C198.51 599.737 205.241 608.188 213.616 614.1C221.991 620.012 231.672 623.148 241.553 623.148C251.433 623.148 261.115 620.012 269.49 614.1C277.865 608.188 284.596 599.737 288.913 589.714C293.23 579.691 294.96 568.501 293.903 557.422C292.847 546.343 289.048 535.823 282.94 527.064C290.238 516.596 294.205 503.667 294.205 490.351C294.205 477.036 290.238 464.107 282.94 453.639L282.924 453.62Z" fill="#874000"/>
<path opacity="0.1" d="M188.884 490.333C188.862 503.652 192.832 516.589 200.149 527.045C194.041 535.804 190.242 546.324 189.186 557.403C188.129 568.482 189.859 579.673 194.176 589.696C198.493 599.718 205.224 608.169 213.599 614.081C221.974 619.994 231.655 623.129 241.536 623.129C251.417 623.129 261.098 619.994 269.473 614.081C277.848 608.169 284.579 599.718 288.896 589.696C293.213 579.673 294.943 568.482 293.887 557.403C292.83 546.324 289.031 535.804 282.924 527.045C289.998 516.95 188.884 483.65 188.884 490.333Z" fill="black"/>
<path d="M410.992 624.298C412.93 620.479 413.931 616.146 413.892 611.746C413.892 600.403 407.665 591.206 399.979 591.206C392.293 591.206 386.066 600.403 386.066 611.746C386.03 616.147 387.034 620.48 388.974 624.298C387.068 628.131 386.066 632.452 386.066 636.846C386.066 641.241 387.068 645.561 388.974 649.394C387.068 653.228 386.066 657.551 386.066 661.947C386.066 666.343 387.068 670.665 388.974 674.499C387.068 678.333 386.066 682.656 386.066 687.052C386.066 691.448 387.068 695.77 388.974 699.604C387.033 703.422 386.029 707.755 386.066 712.157C386.066 723.499 392.302 732.696 399.979 732.696C407.656 732.696 413.892 723.499 413.892 712.157C413.932 707.756 412.931 703.423 410.992 699.604C412.894 695.768 413.892 691.446 413.892 687.052C413.892 682.657 412.894 678.335 410.992 674.499C412.894 670.663 413.892 666.341 413.892 661.947C413.892 657.552 412.894 653.23 410.992 649.394C412.894 645.559 413.892 641.24 413.892 636.846C413.892 632.453 412.894 628.133 410.992 624.298Z" fill="#3F3D56"/>
<path d="M399.979 607.19C407.663 607.19 413.892 597.994 413.892 586.65C413.892 575.307 407.663 566.111 399.979 566.111C392.295 566.111 386.066 575.307 386.066 586.65C386.066 597.994 392.295 607.19 399.979 607.19Z" fill="#3F3D56"/>
<path d="M399.979 582.085C407.663 582.085 413.892 572.889 413.892 561.545C413.892 550.202 407.663 541.006 399.979 541.006C392.295 541.006 386.066 550.202 386.066 561.545C386.066 572.889 392.295 582.085 399.979 582.085Z" fill="#3F3D56"/>
<path d="M347.905 389.752C346 387.027 344.269 384.152 342.725 381.15L379.277 374.382L339.741 374.713C335.948 365.407 333.878 355.326 333.659 345.087C333.44 334.848 335.076 324.666 338.467 315.164L391.513 346.196L342.591 305.646C347.182 296.733 353.351 288.98 360.712 282.87C368.074 276.759 376.471 272.422 385.382 270.128C394.293 267.834 403.528 267.631 412.511 269.534C421.495 271.436 430.035 275.402 437.601 281.185C445.168 286.968 451.598 294.445 456.493 303.15C461.388 311.855 464.643 321.603 466.055 331.788C467.467 341.972 467.006 352.375 464.701 362.35C462.396 372.325 458.296 381.659 452.656 389.771C455.619 394.018 458.167 398.613 460.258 403.476L412.802 431.285L463.401 412.134C466.957 423.977 467.836 436.633 465.96 448.955C464.083 461.278 459.511 472.878 452.656 482.705C460.386 493.791 465.195 507.106 466.531 521.128C467.868 535.151 465.679 549.314 460.214 562C454.75 574.685 446.231 585.381 435.631 592.864C425.031 600.347 412.778 604.315 400.272 604.315C387.767 604.315 375.513 600.347 364.913 592.864C354.313 585.381 345.794 574.685 340.33 562C334.865 549.314 332.676 535.151 334.013 521.128C335.35 507.106 340.158 493.791 347.888 482.705C338.648 469.458 333.624 453.092 333.624 436.238C333.624 419.383 338.648 403.018 347.888 389.771L347.905 389.752Z" fill="#874000"/>
<path opacity="0.1" d="M466.921 436.219C466.949 453.076 461.929 469.449 452.673 482.686C460.403 493.772 465.211 507.087 466.548 521.109C467.885 535.132 465.696 549.295 460.231 561.981C454.767 574.666 446.248 585.362 435.648 592.845C425.048 600.328 412.795 604.296 400.289 604.296C387.783 604.296 375.53 600.328 364.93 592.845C354.33 585.362 345.811 574.666 340.347 561.981C334.882 549.295 332.693 535.132 334.03 521.109C335.367 507.087 340.175 493.772 347.905 482.686C338.97 469.897 466.921 427.787 466.921 436.219Z" fill="white"/>
<defs>
<filter id="filter0_d_2261_642" x="25.6619" y="443.919" width="141.282" height="177.177" filterUnits="userSpaceOnUse" color-interpolation-filters="sRGB">
<feFlood flood-opacity="0" result="BackgroundImageFix"/>
<feColorMatrix in="SourceAlpha" type="matrix" values="0 0 0 0 0 0 0 0 0 0 0 0 0 0 0 0 0 0 127 0" result="hardAlpha"/>
<feOffset dy="4"/>
<feGaussianBlur stdDeviation="2"/>
<feComposite in2="hardAlpha" operator="out"/>
<feColorMatrix type="matrix" values="0 0 0 0 0 0 0 0 0 0 0 0 0 0 0 0 0 0 0.25 0"/>
<feBlend mode="normal" in2="BackgroundImageFix" result="effect1_dropShadow_2261_642"/>
<feBlend mode="normal" in="SourceGraphic" in2="effect1_dropShadow_2261_642" result="shape"/>
</filter>
<linearGradient id="paint0_linear_2261_642" x1="320.003" y1="721.845" x2="320.003" y2="595.375" gradientUnits="userSpaceOnUse">
<stop stop-color="#808080" stop-opacity="0.25"/>
<stop offset="0.54" stop-color="#808080" stop-opacity="0.12"/>
<stop offset="1" stop-color="#808080" stop-opacity="0.1"/>
</linearGradient>
</defs>
</svg>
