<svg width="533" height="632" viewBox="0 0 533 632" fill="none" xmlns="http://www.w3.org/2000/svg">
<path d="M255.483 593.668L254.805 577.791C254.734 577.752 254.664 577.714 254.593 577.675C247.323 573.705 238.99 580.892 241.313 589.087C243.497 596.799 244.965 605.112 248.965 611.861C251.328 615.782 254.508 619.099 258.27 621.566C262.032 624.033 266.28 625.588 270.698 626.115L279.934 632C281.202 624.647 280.922 617.095 279.115 609.865C277.308 602.634 274.016 595.898 269.467 590.119C266.884 586.904 263.922 584.039 260.651 581.594C258.439 587.665 255.483 593.668 255.483 593.668Z" fill="#F2F2F2"/>
<path d="M186.209 432.18C167.044 413.11 139.272 402.173 110.014 402.173L108.885 402.176C89.6132 402.183 70.6853 397.251 54.0371 387.884L52.3047 386.91L53.7 385.523C61.254 377.982 67.5615 369.365 72.4017 359.975C68.9641 363.067 64.8641 365.393 60.3918 366.787C55.9195 368.181 51.1843 368.609 46.5214 368.042C41.5984 367.476 36.8723 365.841 32.6975 363.261C28.5227 360.681 25.0076 357.222 22.4159 353.144C12.1897 337.135 0 314.419 0 297.114C0.0159186 282.487 3.1901 268.023 9.32022 254.645C15.4503 241.267 24.4019 229.268 35.6044 219.413C42.6965 213.242 48.3613 205.699 52.2295 197.275C56.0976 188.851 58.0822 179.734 58.0539 170.52L58.0483 169.209C58.0463 157.078 59.5827 144.993 62.6231 133.222L62.9319 132.034L64.1993 132.076C72.3727 132.345 80.5505 131.684 88.5637 130.107C81.0473 129.217 73.6943 127.33 66.713 124.499L65.3495 123.967L65.8122 122.619C97.7107 103.562 169.715 113.431 211.508 21.1695C245.396 -53.642 364.967 87.5797 364.967 169.209C364.967 177.539 356.424 188.546 362.819 194.051C431.955 253.563 384.252 291.778 369.212 330.232C365.644 339.356 373.381 349.372 373.381 359.242C373.381 360.917 373.337 362.646 373.249 364.381L373.116 367.048L370.811 365.568C366.251 362.685 362.024 359.34 358.202 355.589C362.167 364.392 364.035 373.941 363.67 383.533C363.305 393.126 360.715 402.517 356.092 411.016C348.846 424.21 341.837 433.656 335.258 439.089C314.184 456.49 287.017 465.466 259.312 464.182C231.607 462.897 205.457 451.45 186.209 432.18Z" fill="#1A4D2E"/>
<path d="M280.19 631.217C280.628 631.216 281.05 631.052 281.38 630.753C281.71 630.455 281.926 630.043 281.987 629.592C282.064 629.028 289.626 572.273 282.835 496.845C276.563 427.185 256.423 326.85 196.09 244.446C195.945 244.248 195.765 244.082 195.558 243.957C195.352 243.831 195.124 243.75 194.887 243.716C194.651 243.683 194.41 243.698 194.179 243.762C193.948 243.825 193.732 243.935 193.542 244.086C193.352 244.237 193.192 244.425 193.072 244.64C192.952 244.855 192.874 245.092 192.842 245.338C192.81 245.585 192.825 245.835 192.887 246.075C192.948 246.316 193.054 246.541 193.199 246.738C253.011 328.43 272.989 428.029 279.216 497.198C285.968 572.187 278.466 628.499 278.389 629.059C278.353 629.327 278.372 629.601 278.446 629.861C278.52 630.12 278.646 630.361 278.817 630.565C278.988 630.77 279.199 630.934 279.436 631.046C279.673 631.159 279.93 631.217 280.19 631.217Z" fill="#3F3D56"/>
<path d="M230.954 360.68C231.338 360.68 231.712 360.554 232.023 360.319C232.334 360.085 232.565 359.754 232.684 359.374C232.802 358.994 232.803 358.585 232.684 358.205C232.566 357.825 232.335 357.494 232.024 357.259C231.805 357.094 209.734 340.543 176.737 327.969C146.234 316.347 99.8497 305.811 52.0979 321.628C51.8702 321.703 51.6589 321.824 51.4762 321.984C51.2935 322.144 51.1428 322.34 51.0329 322.56C50.923 322.781 50.8561 323.022 50.8358 323.27C50.8155 323.517 50.8423 323.767 50.9148 324.004C50.9872 324.241 51.1038 324.46 51.2579 324.65C51.412 324.84 51.6005 324.997 51.8128 325.111C52.025 325.225 52.2568 325.294 52.4948 325.315C52.7328 325.335 52.9724 325.307 53.1999 325.231C99.9733 309.74 145.517 320.102 175.487 331.521C208.013 343.915 229.673 360.156 229.888 360.319C230.197 360.553 230.571 360.68 230.954 360.68Z" fill="#3F3D56"/>
<path d="M314.117 145.12C314.145 144.722 314.051 144.325 313.849 143.985C313.646 143.646 313.346 143.382 312.99 143.231C312.635 143.081 312.243 143.051 311.87 143.147C311.497 143.242 311.163 143.458 310.916 143.764C310.742 143.979 293.29 165.698 278.863 199.043C265.528 229.868 252.09 277.257 263.81 327.962C263.922 328.45 264.217 328.871 264.628 329.133C265.039 329.395 265.533 329.476 266.001 329.359C266.47 329.241 266.874 328.935 267.126 328.508C267.377 328.08 267.455 327.566 267.343 327.078C255.864 277.411 269.075 230.883 282.177 200.596C296.398 167.726 313.523 146.413 313.694 146.202C313.942 145.897 314.09 145.518 314.117 145.12Z" fill="#3F3D56"/>
<path d="M311.659 242.627C313.192 255.5 321.763 266.114 334.226 266.114C340.211 266.114 345.952 263.639 350.184 259.235C354.416 254.83 356.794 248.856 356.794 242.627C356.794 229.656 346.636 220.341 334.226 219.141C321.058 217.869 309.691 226.101 311.659 242.627Z" fill="#2F2E41"/>
<path d="M344.678 620.872L353.272 620.871L357.36 586.374L344.676 586.375L344.678 620.872Z" fill="#FFB6B6"/>
<path d="M344.376 630.202L370.804 630.201V629.853C370.803 627.014 369.72 624.291 367.791 622.284C365.862 620.276 363.245 619.148 360.517 619.148L355.69 615.337L346.683 619.149L344.376 619.149L344.376 630.202Z" fill="#2F2E41"/>
<path d="M310.827 620.872L319.421 620.871L323.509 586.374L310.825 586.375L310.827 620.872Z" fill="#FFB6B6"/>
<path d="M310.525 630.202L336.953 630.201V629.853C336.952 627.014 335.869 624.291 333.94 622.284C332.011 620.276 329.394 619.148 326.666 619.148L321.838 615.337L312.832 619.149L310.525 619.149L310.525 630.202Z" fill="#2F2E41"/>
<path d="M374.252 404.808L380.328 426.488L373.17 518.305C373.17 518.305 376.856 524.045 374.252 524.045C371.648 524.045 368.309 525.318 370.413 528.747C372.516 532.175 365.326 544.483 365.326 544.483L355.156 609.86L342.198 609.661C342.198 609.661 335.61 605.841 339.308 601.979C343.005 598.117 345.609 598.117 342.137 594.504C338.665 590.89 338.665 591.979 338.665 589.176C338.665 586.374 335.186 552.126 343.436 538.989L340.95 485.427L335.096 537.965L323.041 608.053L310.558 607.946C310.558 607.946 304.792 602.163 304.803 597.882C304.814 593.6 308.365 593.245 305.722 590.713C303.078 588.18 303.078 549.281 310.89 527.658C310.89 527.658 315.309 515.578 310.88 511.438C306.451 507.298 310.874 502.562 310.874 502.562C310.874 502.562 317.889 499.923 310.868 492.319C303.847 484.716 310.83 430.94 310.83 430.94C310.83 430.94 303.155 409.233 310.928 400.697C318.701 392.162 374.252 404.808 374.252 404.808Z" fill="#2F2E41"/>
<path d="M266.037 442.16L276.877 414.896L285.418 419.834L280.26 447.568C280.777 449.325 280.812 451.197 280.363 452.974C279.913 454.751 278.996 456.362 277.714 457.626C276.433 458.89 274.838 459.758 273.109 460.13C271.38 460.503 269.586 460.366 267.927 459.736C266.269 459.105 264.813 458.005 263.722 456.561C262.631 455.116 261.949 453.383 261.753 451.557C261.556 449.731 261.853 447.884 262.61 446.224C263.367 444.564 264.554 443.156 266.037 442.16Z" fill="#FFB6B6"/>
<path d="M447.943 226.565L431.449 250.564L424.205 243.74L435.268 217.943C435.147 216.11 435.52 214.278 436.345 212.653C437.17 211.029 438.414 209.676 439.937 208.747C441.46 207.818 443.203 207.349 444.968 207.394C446.733 207.439 448.451 207.995 449.929 209C451.407 210.006 452.586 211.42 453.334 213.084C454.082 214.749 454.369 216.597 454.162 218.422C453.956 220.247 453.265 221.976 452.166 223.415C451.068 224.853 449.605 225.944 447.943 226.565Z" fill="#FFB6B6"/>
<path d="M375.889 407.03C386.587 424.3 332.81 446.216 312.175 437.418C308.562 435.877 296.133 430.788 304.629 423.733C313.124 416.678 303.644 415.685 303.419 411.092C303.27 408.021 305.554 401.286 303.171 401.575C300.787 401.863 297.998 397.617 303.188 395.79C308.379 393.962 303.244 392.296 303.289 390.561C303.786 371.632 317.741 341.523 317.741 341.523L292.595 408.42C292.595 408.42 292.781 419.993 289.574 416.457C286.367 412.92 286.601 424.367 286.601 424.367C286.601 424.367 281.832 427.83 284.574 429.757C287.316 431.685 281.622 437.611 281.622 437.611L268.336 436.623C268.336 436.623 268.544 426.352 270.813 424.08C273.081 421.809 271.967 418.234 271.967 418.234C271.967 418.234 277.873 412.793 273.914 408.375C268.821 402.693 287.388 306.726 293.796 307.676C294.702 303.088 296.809 298.849 299.885 295.43C302.961 292.01 306.886 289.542 311.225 288.298L325.575 284.187L328.123 273.665H348.328L351.847 280.579L367.209 287.793C370.102 283.544 372.265 279.067 384.113 277.616C384.113 277.616 416.039 247.385 414.481 245.024C412.922 242.664 417.871 237.137 417.871 237.137C417.871 237.137 422.098 235.698 419.713 234.929C417.328 234.16 421.836 232.383 421.836 232.383C421.836 232.383 426.011 231.241 424.042 229.738C422.073 228.235 430.613 227.247 430.613 227.247L441.695 236.657L439.455 240.609C439.455 240.609 440.821 245.991 439.039 244.026C437.256 242.061 436.921 247.763 436.921 247.763C436.921 247.763 436.011 254.007 430.613 255.888C425.216 257.769 421.124 275.64 421.124 275.64C408.395 292.864 393.373 306.3 375.572 315.145C382.51 323.433 375.889 407.03 375.889 407.03Z" fill="#4F6F52"/>
<path d="M336.72 267.508C347.772 267.508 356.732 258.184 356.732 246.682C356.732 235.179 347.772 225.855 336.72 225.855C325.668 225.855 316.708 235.179 316.708 246.682C316.708 258.184 325.668 267.508 336.72 267.508Z" fill="#FFB6B6"/>
<path d="M315.998 248.951C316.632 253.476 320.338 259.79 319.47 259.79C318.602 259.79 312.431 241.134 318.602 239.917C323.079 239.035 324.079 239.809 328.263 237.921L327.673 238.499C330.442 240.595 334.295 239.303 337.455 237.939C340.623 236.584 344.468 235.293 347.246 237.379C348.99 238.689 349.728 240.965 350.813 242.898C351.898 244.841 353.903 246.674 355.969 246.078C357.627 245.599 358.581 243.666 358.573 241.878C358.564 240.089 356.326 238.388 357.08 236.783C359.313 232.028 357.305 228.786 352.436 226.548C350.665 226.268 348.895 225.982 347.124 225.69C348.052 224.353 349.177 223.176 350.457 222.204C349.916 220.76 348.981 219.513 347.766 218.617C346.352 217.741 344.598 217.804 342.958 217.895C339.295 218.093 335.635 218.292 331.978 218.491C329.27 218.635 326.466 218.807 324.045 220.099C321.024 221.716 319.045 224.868 317.604 228.075C314.375 235.284 314.887 241.083 315.998 248.951Z" fill="#2F2E41"/>
<path d="M161.568 538.792C161.93 536.197 159.319 533.653 155.734 533.111C152.149 532.568 148.949 534.232 148.586 536.827C148.223 539.422 150.835 541.966 154.42 542.509C158.005 543.051 161.205 541.388 161.568 538.792Z" fill="#E6E6E6"/>
<path d="M204.248 534.458C204.61 531.863 201.999 529.319 198.414 528.777C194.829 528.234 191.629 529.898 191.266 532.493C190.903 535.088 193.515 537.632 197.1 538.175C200.685 538.718 203.885 537.054 204.248 534.458Z" fill="#3F3D56"/>
<path d="M149.88 502.833C150.243 500.238 147.631 497.694 144.047 497.151C140.462 496.609 137.262 498.272 136.899 500.868C136.536 503.463 139.148 506.007 142.733 506.549C146.317 507.092 149.517 505.428 149.88 502.833Z" fill="#FF6584"/>
<path d="M131.335 488.104C131.352 485.722 130.075 483.78 128.483 483.767C126.89 483.755 125.585 485.676 125.568 488.059C125.55 490.441 126.827 492.383 128.42 492.395C130.013 492.408 131.318 490.487 131.335 488.104Z" fill="#E6E6E6"/>
<path d="M125.046 460.669C125.064 458.286 123.787 456.345 122.194 456.332C120.602 456.32 119.296 458.241 119.279 460.624C119.262 463.006 120.539 464.948 122.131 464.96C123.724 464.973 125.029 463.051 125.046 460.669Z" fill="#3F3D56"/>
<path d="M173.952 508.953C173.97 506.57 172.693 504.629 171.1 504.616C169.507 504.603 168.202 506.525 168.185 508.907C168.168 511.29 169.445 513.231 171.037 513.244C172.63 513.256 173.935 511.335 173.952 508.953Z" fill="#E6E6E6"/>
<path d="M153.328 519.67C153.345 517.287 152.068 515.346 150.475 515.333C148.883 515.321 147.578 517.242 147.56 519.624C147.543 522.007 148.82 523.948 150.413 523.961C152.005 523.973 153.31 522.052 153.328 519.67Z" fill="#FF6584"/>
<path d="M182.038 539.477C182.055 537.095 180.778 535.153 179.186 535.141C177.593 535.128 176.288 537.049 176.271 539.432C176.253 541.814 177.53 543.756 179.123 543.769C180.715 543.781 182.02 541.86 182.038 539.477Z" fill="#3F3D56"/>
<path d="M489.663 399.682C490.026 397.087 487.414 394.543 483.829 394C480.245 393.458 477.044 395.121 476.682 397.717C476.319 400.312 478.931 402.856 482.515 403.399C486.1 403.941 489.3 402.278 489.663 399.682Z" fill="#E6E6E6"/>
<path d="M532.343 395.348C532.706 392.753 530.094 390.209 526.509 389.667C522.925 389.124 519.725 390.788 519.362 393.383C518.999 395.978 521.611 398.522 525.195 399.065C528.78 399.607 531.98 397.944 532.343 395.348Z" fill="#3F3D56"/>
<path d="M477.976 363.723C478.339 361.128 475.727 358.584 472.142 358.041C468.557 357.498 465.357 359.162 464.994 361.757C464.632 364.353 467.243 366.897 470.828 367.439C474.413 367.982 477.613 366.318 477.976 363.723Z" fill="#FF6584"/>
<path d="M459.43 348.994C459.448 346.611 458.171 344.67 456.578 344.657C454.986 344.645 453.68 346.566 453.663 348.949C453.646 351.331 454.923 353.273 456.515 353.285C458.108 353.298 459.413 351.376 459.43 348.994Z" fill="#E6E6E6"/>
<path d="M453.142 321.559C453.159 319.176 451.882 317.235 450.29 317.222C448.697 317.21 447.392 319.131 447.375 321.513C447.357 323.896 448.634 325.838 450.227 325.85C451.819 325.863 453.125 323.941 453.142 321.559Z" fill="#3F3D56"/>
<path d="M502.048 369.842C502.065 367.46 500.788 365.518 499.196 365.506C497.603 365.493 496.298 367.414 496.281 369.797C496.263 372.179 497.54 374.121 499.133 374.134C500.725 374.146 502.03 372.225 502.048 369.842Z" fill="#E6E6E6"/>
<path d="M481.423 380.56C481.44 378.177 480.163 376.236 478.571 376.223C476.978 376.21 475.673 378.132 475.656 380.514C475.639 382.897 476.916 384.838 478.508 384.851C480.101 384.863 481.406 382.942 481.423 380.56Z" fill="#FF6584"/>
<path d="M510.133 400.367C510.151 397.985 508.874 396.043 507.281 396.031C505.689 396.018 504.383 397.939 504.366 400.322C504.349 402.704 505.626 404.646 507.218 404.658C508.811 404.671 510.116 402.75 510.133 400.367Z" fill="#3F3D56"/>
<path d="M330.823 142.238C331.186 139.643 328.574 137.099 324.989 136.556C321.405 136.013 318.205 137.677 317.842 140.272C317.479 142.868 320.091 145.412 323.675 145.954C327.26 146.497 330.46 144.833 330.823 142.238Z" fill="white"/>
<path d="M373.503 137.904C373.866 135.309 371.254 132.765 367.669 132.222C364.085 131.68 360.885 133.343 360.522 135.939C360.159 138.534 362.771 141.078 366.356 141.62C369.94 142.163 373.14 140.499 373.503 137.904Z" fill="#3F3D56"/>
<path d="M319.136 106.279C319.499 103.684 316.887 101.14 313.302 100.597C309.717 100.054 306.517 101.718 306.155 104.313C305.792 106.909 308.404 109.452 311.988 109.995C315.573 110.538 318.773 108.874 319.136 106.279Z" fill="#FF6584"/>
<path d="M300.591 91.5497C300.608 89.1672 299.331 87.2256 297.738 87.2131C296.146 87.2005 294.841 89.1218 294.823 91.5043C294.806 93.8868 296.083 95.8284 297.676 95.8409C299.268 95.8535 300.573 93.9322 300.591 91.5497Z" fill="#E6E6E6"/>
<path d="M294.302 64.1146C294.319 61.7321 293.042 59.7905 291.45 59.778C289.857 59.7655 288.552 61.6867 288.535 64.0692C288.517 66.4518 289.794 68.3933 291.387 68.4059C292.98 68.4184 294.285 66.4971 294.302 64.1146Z" fill="#3F3D56"/>
<path d="M343.208 112.398C343.225 110.016 341.948 108.074 340.356 108.062C338.763 108.049 337.458 109.97 337.441 112.353C337.423 114.735 338.7 116.677 340.293 116.689C341.885 116.702 343.191 114.781 343.208 112.398Z" fill="#E6E6E6"/>
<path d="M322.583 123.115C322.601 120.733 321.324 118.791 319.731 118.779C318.138 118.766 316.833 120.687 316.816 123.07C316.799 125.452 318.076 127.394 319.668 127.407C321.261 127.419 322.566 125.498 322.583 123.115Z" fill="#FF6584"/>
<path d="M351.293 142.923C351.311 140.54 350.034 138.599 348.441 138.586C346.849 138.574 345.544 140.495 345.526 142.878C345.509 145.26 346.786 147.202 348.378 147.214C349.971 147.227 351.276 145.305 351.293 142.923Z" fill="#3F3D56"/>
</svg>
